<svg width="106" height="38" viewBox="0 0 106 38" fill="none" xmlns="http://www.w3.org/2000/svg">
<circle cx="19" cy="19" r="19" fill="#F78B3D"/>
<circle cx="19" cy="19" r="19" fill="url(#paint0_linear)"/>
<path d="M7 20C7 18.8954 7.89543 18 9 18C10.1046 18 11 18.8954 11 20V25C11 25.5523 10.5523 26 10 26H8C7.44772 26 7 25.5523 7 25V20Z" fill="white"/>
<path d="M27 20C27 18.8954 27.8954 18 29 18C30.1046 18 31 18.8954 31 20V25C31 25.5523 30.5523 26 30 26H28C27.4477 26 27 25.5523 27 25V20Z" fill="white"/>
<path d="M17 14C17 12.8954 17.8954 12 19 12C20.1046 12 21 12.8954 21 14V24.6799C21 25.409 20.409 26 19.6799 26H18.3201C17.591 26 17 25.409 17 24.6799V14Z" fill="white"/>
<path d="M22 14C22 12.8954 22.8954 12 24 12C25.1046 12 26 12.8954 26 14V24.6799C26 25.409 25.409 26 24.6799 26H23.3201C22.591 26 22 25.409 22 24.6799V14Z" fill="white"/>
<path d="M12 14C12 12.8954 12.8954 12 14 12C15.1046 12 16 12.8954 16 14V25C16 25.5523 15.5523 26 15 26H13C12.4477 26 12 25.5523 12 25V14Z" fill="white"/>
<path d="M14 20.5C12.6193 20.5 11.5 21.6193 11.5 23V25C11.5 25.8285 12.1716 26.5 13 26.5H15C15.8284 26.5 16.5 25.8285 16.5 25V23C16.5 21.6193 15.3807 20.5 14 20.5Z" fill="white" stroke="#F98029"/>
<path d="M19 20.5C17.6193 20.5 16.5 21.6193 16.5 23V25C16.5 25.8285 17.1716 26.5 18 26.5H20C20.8284 26.5 21.5 25.8285 21.5 25V23C21.5 21.6193 20.3807 20.5 19 20.5Z" fill="white" stroke="#F98029"/>
<path d="M24 20.5C22.6193 20.5 21.5 21.6193 21.5 23V25C21.5 25.8285 22.1716 26.5 23 26.5H25C25.8284 26.5 26.5 25.8285 26.5 25V23C26.5 21.6193 25.3807 20.5 24 20.5Z" fill="white" stroke="#F98029"/>
<path d="M60.6863 6.30322V17.4748H58.4784V10.2292L55.3036 15.416H55.0457L51.8708 10.2452V17.4748H49.6468V6.30322H51.9353L55.1746 11.5858L58.3978 6.30322H60.6863Z" fill="black"/>
<path d="M64.4483 14.3308C64.7276 15.3309 65.4851 15.831 66.7206 15.831C67.5157 15.831 68.1174 15.565 68.5256 15.033L70.2017 15.9905C69.4066 17.129 68.2355 17.6982 66.6884 17.6982C65.3561 17.6982 64.2871 17.2992 63.4813 16.5012C62.6755 15.7033 62.2726 14.6978 62.2726 13.4849C62.2726 12.2827 62.6701 11.2825 63.4652 10.4846C64.2602 9.67596 65.2809 9.27166 66.5272 9.27166C67.7091 9.27166 68.6814 9.67596 69.4442 10.4846C70.2178 11.2932 70.6046 12.2933 70.6046 13.4849C70.6046 13.7509 70.5777 14.0329 70.524 14.3308H64.4483ZM64.416 12.7348H68.5256C68.4074 12.1922 68.1603 11.7879 67.7843 11.5219C67.419 11.2559 67 11.1229 66.5272 11.1229C65.9685 11.1229 65.5066 11.2666 65.1413 11.5538C64.776 11.8305 64.5342 12.2241 64.416 12.7348Z" fill="black"/>
<path d="M75.8125 17.6982C74.5447 17.6982 73.5186 17.2939 72.7343 16.4853C71.9607 15.6767 71.5739 14.65 71.5739 13.4051C71.5739 12.0433 71.7781 10.9953 72.1864 10.2611C72.5946 9.51637 73.4165 8.84075 74.6521 8.2343C74.8348 8.14918 75.0926 8.03215 75.4257 7.88319C75.7587 7.7236 75.9844 7.61188 76.1026 7.54805C76.2315 7.48421 76.4034 7.38845 76.6183 7.26078C76.8331 7.1331 76.9836 7.02139 77.0695 6.92563C77.1662 6.81924 77.2683 6.68624 77.3757 6.52665C77.4832 6.36705 77.5691 6.1915 77.6336 5.99999L79.3419 6.97351C79.2022 7.62252 78.8853 8.1279 78.391 8.48965C77.9076 8.84075 77.177 9.2025 76.1993 9.57488C75.5116 9.84087 75.012 10.1069 74.7005 10.3729C74.3889 10.6388 74.1633 10.958 74.0236 11.3304C74.6253 10.724 75.4311 10.4207 76.441 10.4207C77.3327 10.4207 78.1278 10.7452 78.8262 11.3943C79.5245 12.0326 79.8737 12.8838 79.8737 13.9477C79.8737 15.0436 79.4977 15.9427 78.7456 16.6449C78.0042 17.3471 77.0265 17.6982 75.8125 17.6982ZM74.3298 15.2724C74.7273 15.6341 75.2162 15.815 75.7964 15.815C76.3765 15.815 76.8546 15.6394 77.2307 15.2883C77.6067 14.9372 77.7947 14.4904 77.7947 13.9477C77.7947 13.4051 77.6067 12.9583 77.2307 12.6072C76.8546 12.2454 76.3712 12.0645 75.7802 12.0645C75.2538 12.0645 74.781 12.2295 74.362 12.5593C73.9537 12.8891 73.7496 13.3307 73.7496 13.8839C73.7496 14.4478 73.943 14.9106 74.3298 15.2724Z" fill="black"/>
<path d="M82.8936 14.3308C83.1729 15.3309 83.9304 15.831 85.1659 15.831C85.961 15.831 86.5627 15.565 86.9709 15.033L88.647 15.9905C87.8519 17.129 86.6808 17.6982 85.1337 17.6982C83.8014 17.6982 82.7324 17.2992 81.9266 16.5012C81.1208 15.7033 80.7179 14.6978 80.7179 13.4849C80.7179 12.2827 81.1154 11.2825 81.9105 10.4846C82.7056 9.67596 83.7262 9.27166 84.9725 9.27166C86.1544 9.27166 87.1267 9.67596 87.8895 10.4846C88.6631 11.2932 89.0499 12.2933 89.0499 13.4849C89.0499 13.7509 89.023 14.0329 88.9693 14.3308H82.8936ZM82.8613 12.7348H86.9709C86.8527 12.1922 86.6056 11.7879 86.2296 11.5219C85.8643 11.2559 85.4453 11.1229 84.9725 11.1229C84.4139 11.1229 83.9519 11.2666 83.5866 11.5538C83.2213 11.8305 82.9795 12.2241 82.8613 12.7348Z" fill="black"/>
<path d="M97.1002 9.49509V17.4748H95.0213V11.474H92.7973V14.1393C92.7973 16.6076 91.6638 17.7195 89.3968 17.4748V15.5437C89.8265 15.6501 90.1542 15.5809 90.3799 15.3362C90.6055 15.0809 90.7183 14.6446 90.7183 14.0275V9.49509H97.1002Z" fill="black"/>
<path d="M102.626 12.0486C103.54 12.0486 104.276 12.2986 104.834 12.7987C105.393 13.2881 105.672 13.9424 105.672 14.7617C105.672 15.5809 105.393 16.2406 104.834 16.7406C104.276 17.2301 103.54 17.4748 102.626 17.4748H98.9842V9.49509H101.063V12.0486H102.626ZM102.643 15.6554C102.933 15.6554 103.169 15.5756 103.352 15.416C103.545 15.2458 103.642 15.0277 103.642 14.7617C103.642 14.4957 103.545 14.2776 103.352 14.1073C103.169 13.9371 102.933 13.852 102.643 13.852H101.063V15.6554H102.643Z" fill="black"/>
<path d="M54.1755 29.5881V23.6439H49.504V26.9389C49.504 28.2437 49.2378 28.9554 48.7719 29.5881H48V32H48.6788V30.2339H54.4284V32H55.1072V29.5881H54.1755ZM49.5971 29.5881C49.9698 28.9159 50.1694 28.1119 50.1694 26.9389V24.2897H53.4967V29.5881H49.5971Z" fill="black"/>
<path d="M62.6382 23.6439H57.9533V27.4661C57.9533 29.1663 57.4076 29.7067 56.3828 29.6144V30.2339C57.6339 30.3261 58.6187 29.7726 58.6187 27.4661V24.2897H61.9727V30.2339H62.6382V23.6439Z" fill="black"/>
<path d="M69.9526 23.6439H67.3173C66.1328 23.6439 65.1213 24.4479 65.1213 25.6604C65.1213 26.7676 65.9731 27.532 67.0245 27.6506L64.895 30.2339H65.7601L67.8497 27.6638H69.2871V30.2339H69.9526V23.6439ZM67.3173 27.0312C66.4788 27.0312 65.8001 26.504 65.8001 25.6604C65.8001 24.8301 66.4788 24.2897 67.3173 24.2897H69.2871V27.0312H67.3173Z" fill="black"/>
<path d="M80.9807 26.8335C81.553 26.5567 81.8325 26.0163 81.8325 25.3705C81.8325 24.4084 81.1537 23.6439 79.8494 23.6439H76.8814V30.2339H80.1023C81.4864 30.2339 82.1519 29.4167 82.1519 28.4151C82.1519 27.6638 81.7526 27.0839 80.9807 26.8335ZM79.8494 24.2897C80.6879 24.2897 81.1537 24.7115 81.1537 25.41C81.1537 26.1481 80.7012 26.5699 79.8494 26.5699H77.5469V24.2897H79.8494ZM80.1023 29.5881H77.5469V27.2157H80.1023C80.9807 27.2157 81.4864 27.6638 81.4864 28.3887C81.4864 29.1399 80.994 29.5881 80.1023 29.5881Z" fill="black"/>
<path d="M87.3403 30.3789C88.6447 30.3789 89.7626 29.7199 90.295 28.705L89.736 28.3755C89.2968 29.1927 88.4184 29.7462 87.3403 29.7462C85.7299 29.7462 84.5188 28.5073 84.5188 26.9389C84.5188 25.3705 85.7299 24.1316 87.3403 24.1316C88.4051 24.1316 89.3101 24.672 89.6961 25.5023L90.2418 25.186C89.7626 24.1579 88.6447 23.4989 87.3403 23.4989C85.3306 23.4989 83.84 24.9883 83.84 26.9389C83.84 28.8895 85.3306 30.3789 87.3403 30.3789Z" fill="black"/>
<path d="M95.3481 23.4989C93.3118 23.4989 91.901 25.0015 91.901 26.9389C91.901 28.9291 93.3517 30.3789 95.4013 30.3789C96.7189 30.3789 97.7571 29.7858 98.3027 28.8895L97.7171 28.5469C97.3312 29.2454 96.506 29.7462 95.4146 29.7462C93.8974 29.7462 92.7528 28.7709 92.5931 27.2816H98.6222C98.6222 27.1761 98.6355 27.0707 98.6355 26.9653C98.6355 25.1596 97.3711 23.4989 95.3481 23.4989ZM95.3481 24.1316C96.6524 24.1316 97.797 25.0278 97.9434 26.6358H92.5931C92.7261 25.1728 93.8308 24.1316 95.3481 24.1316Z" fill="black"/>
<path d="M106 30.2339L103.351 26.8335L105.84 23.6439H105.042L102.939 26.3194L100.849 23.6439H100.037L102.54 26.8466L99.8777 30.2339H100.69L102.939 27.3607L105.188 30.2339H106Z" fill="black"/>
<defs>
<linearGradient id="paint0_linear" x1="19" y1="-9.50001" x2="19" y2="38" gradientUnits="userSpaceOnUse">
<stop stop-color="#FF6B00"/>
<stop offset="1" stop-color="#F78B3D"/>
</linearGradient>
</defs>
</svg>
