<svg width="40" height="13" viewBox="0 0 40 13" fill="none" xmlns="http://www.w3.org/2000/svg">
<path fill-rule="evenodd" clip-rule="evenodd" d="M14.3234 12.091L16.3209 0.866211H19.5155L17.5166 12.091H14.3234Z" fill="#004F8B"/>
<path fill-rule="evenodd" clip-rule="evenodd" d="M29.103 1.14247C28.4701 0.914978 27.4785 0.671143 26.2398 0.671143C23.0834 0.671143 20.8596 2.1935 20.8407 4.37534C20.823 5.98823 22.4283 6.8881 23.6399 7.42501C24.8833 7.97504 25.3016 8.32595 25.2955 8.81728C25.2877 9.56964 24.3025 9.91347 23.3842 9.91347C22.1056 9.91347 21.4265 9.74338 20.3773 9.3243L19.9656 9.14584L19.5172 11.6586C20.2635 11.9719 21.6434 12.2435 23.0757 12.2574C26.434 12.2574 28.6138 10.7525 28.6387 8.4225C28.6509 7.14569 27.7995 6.17379 25.9567 5.37283C24.84 4.85355 24.1561 4.50693 24.1633 3.9812C24.1633 3.5146 24.7421 3.01575 25.9928 3.01575C27.0375 3.00027 27.7941 3.2183 28.3837 3.4458L28.6699 3.57524L29.103 1.14247Z" fill="#004F8B"/>
<path fill-rule="evenodd" clip-rule="evenodd" d="M37.295 0.876953H34.8264C34.0617 0.876953 33.4895 1.07671 33.1536 1.80779L28.4092 12.0947H31.7639C31.7639 12.0947 32.3123 10.7114 32.4365 10.4078C32.8031 10.4078 36.0617 10.4126 36.5276 10.4126C36.6232 10.8054 36.9164 12.0947 36.9164 12.0947H39.8807L37.295 0.876953ZM33.3559 8.11178C33.6199 7.465 34.6287 4.97396 34.6287 4.97396C34.6096 5.00385 34.8909 4.32416 35.0521 3.90271L35.2681 4.87053C35.2681 4.87053 35.8799 7.54993 36.0076 8.11178H33.3559Z" fill="#004F8B"/>
<path fill-rule="evenodd" clip-rule="evenodd" d="M11.644 0.874268L8.51633 8.52886L8.18315 6.97317C7.60099 5.17988 5.78692 3.23715 3.75867 2.2646L6.61852 12.0813L9.99856 12.0776L15.0279 0.874268H11.644Z" fill="#004F8B"/>
<path fill-rule="evenodd" clip-rule="evenodd" d="M5.61494 0.867432H0.463713L0.422852 1.10095C4.43064 2.03006 7.08236 4.27533 8.18315 6.97322L7.06305 1.81504C6.86952 1.10417 6.30869 0.892159 5.61494 0.867432Z" fill="#ED9F2D"/>
</svg>
