<svg width="24" height="16" viewBox="0 0 24 16" fill="none" xmlns="http://www.w3.org/2000/svg">
<path d="M14.8799 8.00905C14.8799 11.9688 11.742 15.1773 7.86972 15.1773C3.99748 15.1773 0.859497 11.9681 0.859497 8.00905C0.859497 4.05 3.99825 0.84082 7.86972 0.84082C11.7412 0.84082 14.8799 4.05 14.8799 8.00905Z" fill="#E2574C"/>
<path d="M16.2889 0.840576C14.7168 0.840576 13.2694 1.37606 12.0998 2.26996L12.1054 2.27067C12.3354 2.49788 12.5892 2.65779 12.7849 2.91936L11.3263 2.94302C11.0977 3.17888 10.8894 3.4355 10.6931 3.70218H13.2652C13.4608 3.94228 13.6417 4.15094 13.8058 4.41612H10.2268C10.0957 4.64695 9.97437 4.88422 9.86847 5.13077H14.2133C14.3269 5.37662 14.4286 5.56232 14.5149 5.82255H9.61113C9.53329 6.06989 9.46669 6.32288 9.41616 6.58091H14.7203C14.7722 6.82896 14.8121 7.05829 14.8395 7.29203H9.31095C9.2878 7.52789 9.27588 7.76728 9.27588 8.00888H14.8794C14.8794 8.26267 14.8619 8.49774 14.8367 8.72574H9.31095C9.33479 8.96875 9.36986 9.20744 9.41616 9.44259H14.7118C14.6572 9.67484 14.594 9.90849 14.5148 10.1508H9.59498C9.66927 10.3959 9.75979 10.6339 9.85862 10.8662H14.2133C14.0927 11.1271 13.956 11.3357 13.8052 11.5801H10.2143C10.3559 11.831 10.5123 12.0704 10.6819 12.2998L13.2652 12.3392C13.0451 12.6094 12.7625 12.7721 12.5051 13.0087C12.5191 13.0202 12.0935 13.0073 11.2555 12.9937C12.5303 14.3385 14.3121 15.1771 16.2889 15.1771C20.1618 15.1771 23.3012 11.9679 23.3012 8.00888C23.3012 4.04991 20.1625 0.840576 16.2889 0.840576Z" fill="#F4B459"/>
</svg>
