<svg width="20" height="20" viewBox="0 0 20 20" fill="none" xmlns="http://www.w3.org/2000/svg">
<mask id="path-1-inside-1" fill="white">
<path d="M17 10C17 13.866 13.866 17 10 17C6.13401 17 3 13.866 3 10C3 6.13401 6.13401 3 10 3C13.866 3 17 6.13401 17 10ZM4.07293 10C4.07293 13.2734 6.72657 15.9271 10 15.9271C13.2734 15.9271 15.9271 13.2734 15.9271 10C15.9271 6.72657 13.2734 4.07293 10 4.07293C6.72657 4.07293 4.07293 6.72657 4.07293 10Z"/>
</mask>
<path d="M17 10C17 13.866 13.866 17 10 17C6.13401 17 3 13.866 3 10C3 6.13401 6.13401 3 10 3C13.866 3 17 6.13401 17 10ZM4.07293 10C4.07293 13.2734 6.72657 15.9271 10 15.9271C13.2734 15.9271 15.9271 13.2734 15.9271 10C15.9271 6.72657 13.2734 4.07293 10 4.07293C6.72657 4.07293 4.07293 6.72657 4.07293 10Z" stroke="#F78B3D" stroke-width="2" mask="url(#path-1-inside-1)"/>
</svg>
