<svg width="30" height="30" viewBox="0 0 30 30" fill="none" xmlns="http://www.w3.org/2000/svg">
<path d="M15 4C10.4375 4 7.08203 4.77734 4.84375 5.5625C2.60547 6.34766 1.40625 7.1875 1.40625 7.1875L1 7.5V26H6V24H24V26H29V7.5L28.5938 7.1875C28.5938 7.1875 27.3945 6.34766 25.1562 5.5625C22.918 4.77735 19.5625 4 15 4ZM15 6C19.3359 6 22.4648 6.72266 24.5 7.4375C26.2539 8.05078 26.7852 8.48047 27 8.625V15H25V12.4062L24.5 12.125C24.5 12.125 22.4453 11 19.5 11C17.375 11 15.7617 11.5781 15 11.9062C14.2383 11.5781 12.625 11 10.5 11C7.55469 11 5.5 12.125 5.5 12.125L5 12.4063V15H3V8.625C3.21484 8.48047 3.74609 8.05078 5.5 7.4375C7.53515 6.72266 10.6641 6 15 6ZM10.5 13C12.3711 13 13.4648 13.4141 14 13.6562V15H7V13.6562C7.53515 13.4141 8.6289 13 10.5 13ZM19.5 13C21.3711 13 22.4648 13.4141 23 13.6562V15H16V13.6562C16.5352 13.4141 17.6289 13 19.5 13ZM3 17H27V24H26V22H4V24H3V17Z" fill="#737373"/>
</svg>
