<svg width="30" height="30" viewBox="0 0 30 30" fill="none" xmlns="http://www.w3.org/2000/svg">
<path d="M15 4.9375L14.6562 5.0625L1.65625 9.96875L1 10.2188V11.7812L1.65625 12.0312L14.6562 16.9375L15 17.0625L15.3438 16.9375L28.3438 12.0313L29 11.7813V10.2188L28.3438 9.96875L15.3438 5.0625L15 4.9375ZM15 7.0625L25.4062 11L15 14.9375L4.59375 11L15 7.0625ZM1 12.9062V15.7812L15 21.0625L29 15.7812V12.9063L27 13.6563V14.4063L15 18.9375L3 14.4063V13.6563L1 12.9062ZM1 16.9062V19.7812L15 25.0625L29 19.7812V16.9063L27 17.6563V18.4063L15 22.9375L3 18.4063V17.6563L1 16.9062Z" fill="#737373"/>
</svg>
