<svg width="30" height="30" viewBox="0 0 30 30" fill="none" xmlns="http://www.w3.org/2000/svg">
<path d="M15 3C13.2179 3 11.7209 3.90206 10.6309 5.13086C10.4243 5.07774 10.2708 5 10 5C7.80267 5 6 6.80267 6 9V12.416C4.89322 12.8593 4 13.743 4 15V23V24V26H6V24H24V26H26V24V23V15C26 13.743 25.1068 12.8593 24 12.416V9C24 6.80267 22.1973 5 20 5C19.7292 5 19.5757 5.07774 19.3691 5.13086C18.2791 3.90206 16.7821 3 15 3ZM15 5C16.3471 5 17.5504 5.71948 18.2773 6.76953L18.7051 7.38672L19.416 7.14844C19.716 7.04844 19.9222 7 20 7C21.1167 7 22 7.88333 22 9V12.416C20.8932 12.8593 20 13.743 20 15V17H10V15C10 13.743 9.10678 12.8593 8 12.416V9C8 7.88333 8.88333 7 10 7C10.0778 7 10.284 7.04844 10.584 7.14844L11.2949 7.38672L11.7227 6.76953C12.4496 5.71948 13.6529 5 15 5H15ZM15 7C14.4477 7 14 7.44772 14 8C14 8.55228 14.4477 9 15 9C15.5523 9 16 8.55228 16 8C16 7.44772 15.5523 7 15 7ZM12 10C11.4477 10 11 10.4477 11 11C11 11.5523 11.4477 12 12 12C12.5523 12 13 11.5523 13 11C13 10.4477 12.5523 10 12 10ZM18 10C17.4477 10 17 10.4477 17 11C17 11.5523 17.4477 12 18 12C18.5523 12 19 11.5523 19 11C19 10.4477 18.5523 10 18 10ZM15 13C14.4477 13 14 13.4477 14 14C14 14.5523 14.4477 15 15 15C15.5523 15 16 14.5523 16 14C16 13.4477 15.5523 13 15 13ZM7 14C7.55455 14 8 14.4455 8 15V19H22V15C22 14.4455 22.4455 14 23 14C23.5545 14 24 14.4455 24 15V22H6V15C6 14.4455 6.44545 14 7 14Z" fill="#737373"/>
</svg>
