<svg width="30" height="30" viewBox="0 0 30 30" fill="none" xmlns="http://www.w3.org/2000/svg">
<path d="M3 6V7V24H27V6H3ZM5 8H14V22H5V8ZM16 8H25V13H21.6738C21.7308 12.868 21.9429 12.3987 22.2109 11.5957C22.3279 11.2477 22.4285 10.8635 22.5195 10.4805C22.5225 10.4735 22.5273 10.4699 22.5293 10.4629C22.6463 9.96289 22.7395 9.459 22.7695 9H18.2305C18.2845 9.806 18.5181 10.7749 18.7891 11.5879C19.0571 12.3939 19.2682 12.868 19.3262 13H16L16 8ZM10 13V17H12V13H10ZM16 15H25V22H22.5V21H21V19.3457L23.5527 16H17.4453L20 19.3457V21H18.5V22H16L16 15Z" fill="#737373"/>
</svg>
