<svg width="30" height="30" viewBox="0 0 30 30" fill="none" xmlns="http://www.w3.org/2000/svg">
<path d="M15 1C11.1457 1 8 4.14567 8 8V10.9551C8 14.8094 11.1457 17.9551 15 17.9551C18.8545 17.9551 22 14.8086 22 10.9551V8C22 4.14567 18.8543 1 15 1ZM15 3C16.1487 3 17.1915 3.39658 18.0332 4.04102C16.5412 4.95005 15.0484 5.8607 13.5566 6.76953L12.7031 7.29102L13.7441 8.99805L14.5977 8.47852C16.1358 7.54145 17.675 6.60295 19.2129 5.66601L19.3555 5.58008C19.5883 6.00017 19.7764 6.44718 19.8809 6.93164C17.4618 8.4423 15.0442 9.95214 12.625 11.4629L11.7754 11.9922L12.8359 13.6895L13.6836 13.1602C15.7893 11.8452 17.8944 10.53 20 9.21484V10.9551C20 13.7276 17.7735 15.9551 15 15.9551C12.2263 15.9551 10 13.7287 10 10.9551V8C10 5.22634 12.2263 3 15 3V3ZM2 19V21H3V28H4.97852C4.98551 28.3407 4.99298 28.6814 5 29.0215L7 28.9785C6.99327 28.6525 6.98718 28.3262 6.98047 28H23V29H25V28H27V21H28V19H27H3L2 19ZM5 21H9V22V23H11V22V21H14V26H5V21ZM16 21H19V22V23H21V22V21H25V26H16V21Z" fill="#737373"/>
</svg>
