<svg width="30" height="30" viewBox="0 0 30 30" fill="none" xmlns="http://www.w3.org/2000/svg">
<path d="M15 4L4 8.89072V27H5.83333V11.4184H24.1667V27H26V8.89072L15 4ZM15 6.00498L23.0513 9.58531H6.94873L15 6.00498ZM17.6605 16.0012L10.1266 27H12.3395L19.8734 16.0012H17.6605ZM11.3333 16.9178C10.3303 16.9178 9.5 17.748 9.5 18.7509C9.5 19.7539 10.3303 20.5841 11.3333 20.5841C12.3364 20.5841 13.1667 19.7539 13.1667 18.7509C13.1667 17.748 12.3364 16.9178 11.3333 16.9178ZM18.6667 22.4172C17.6636 22.4172 16.8333 23.2474 16.8333 24.2503C16.8333 25.2533 17.6636 26.0834 18.6667 26.0834C19.6697 26.0834 20.5 25.2533 20.5 24.2503C20.5 23.2474 19.6697 22.4172 18.6667 22.4172Z" fill="#F78B3D"/>
</svg>
