<svg width="15" height="15" viewBox="0 0 15 15" fill="none" xmlns="http://www.w3.org/2000/svg">
<path d="M0 2.5C0 1.67157 0.774892 1 1.73077 1H13.2692C14.2251 1 15 1.67157 15 2.5C15 3.32843 14.2251 4 13.2692 4H1.73077C0.774892 4 0 3.32843 0 2.5Z" fill="#202020"/>
<path d="M0 7.5C0 6.67157 0.774892 6 1.73077 6H13.2692C14.2251 6 15 6.67157 15 7.5C15 8.32843 14.2251 9 13.2692 9H1.73077C0.774892 9 0 8.32843 0 7.5Z" fill="#202020"/>
<path d="M0 12.5C0 11.6716 0.774892 11 1.73077 11H13.2692C14.2251 11 15 11.6716 15 12.5C15 13.3284 14.2251 14 13.2692 14H1.73077C0.774892 14 0 13.3284 0 12.5Z" fill="#202020"/>
</svg>
