<svg width="25" height="25" viewBox="0 0 25 25" fill="none" xmlns="http://www.w3.org/2000/svg">
<path d="M17.1875 5H15.3125V6.875H17.1875V5ZM19.0625 5H18.125V7.8125H14.375V5H10.625V7.8125H6.875V5H5.9375C5.4193 5 5 5.41977 5 5.9375V19.0625C5 19.5807 5.4193 20 5.9375 20H19.0625C19.5807 20 20 19.5807 20 19.0625V5.9375C20 5.41977 19.5807 5 19.0625 5ZM18.125 18.125H6.875V9.6875H18.125V18.125ZM9.6875 5H7.8125V6.875H9.6875V5ZM13.4375 11.5625H11.5625V13.4375H13.4375V11.5625ZM16.25 11.5625H14.375V13.4375H16.25V11.5625ZM10.625 14.375H8.75V16.25H10.625V14.375ZM10.625 11.5625H8.75V13.4375H10.625V11.5625ZM13.4375 14.375H11.5625V16.25H13.4375V14.375ZM16.25 14.375H14.375V16.25H16.25V14.375Z" fill="black"/>
</svg>
