<!-- Generated by IcoMoon.io -->
<svg version="1.1" xmlns="http://www.w3.org/2000/svg" width="1024" height="1024" viewBox="0 0 1024 1024">
<title></title>
<g id="icomoon-ignore">
</g>
<path d="M623.866 650.263c2.298-2.296 4.545-4.577 6.756-6.822 36.139-36.674 62.728-63.656 145.5 2.867 79.065 63.566 32.309 108.038-5.972 144.45-4.25 4.043-8.395 7.985-12.253 11.844-44.544 44.536-210.594 2.343-374.723-161.761-164.106-164.143-206.331-330.189-161.757-374.747 3.852-3.852 7.789-7.991 11.823-12.235 36.409-38.285 80.884-85.052 144.435-5.968 66.552 82.764 39.559 109.353 2.863 145.502-2.236 2.206-4.512 4.446-6.803 6.738-27.816 27.83 30.29 98.232 91.093 159.042 60.803 60.801 131.213 118.923 159.037 91.091zM404.816 226.083c-19.886-24.745-40.917-42.17-64.020-50.563-24.295-8.825-47.122-6.308-66.761 1.965-18.491 7.79-33.827 20.506-45.799 31.86-6.849 6.496-14.975 15.008-21.764 22.116-3.795 3.975-7.171 7.512-9.671 10.013-20.641 20.636-27.103 50.553-26.804 79.251 0.309 29.622 7.753 63.822 21.469 100.184 27.515 72.95 82.129 159.568 167.089 244.548l0.004 0.004c84.974 84.959 171.59 139.563 244.537 167.076 36.36 13.713 70.556 21.158 100.174 21.469 28.695 0.303 58.61-6.152 79.245-26.784l0.008-0.006c2.497-2.499 6.038-5.882 10.021-9.685 7.109-6.789 15.62-14.918 22.102-21.75 11.354-11.973 24.072-27.308 31.865-45.801 8.276-19.638 10.799-42.467 1.98-66.765-8.389-23.11-25.809-44.149-50.553-64.041l-0.004-0.004c-45.386-36.477-84.777-54.749-123.369-46.311-18.676 4.084-33.27 13.724-44.771 23.333-8.575 7.166-17.209 15.935-24.754 23.601-0.797 0.809-1.581 1.606-2.351 2.386-5.444-1.298-14.418-5.233-26.993-13.41-25.502-16.585-56.205-44.173-86.245-74.213-30.042-30.044-57.629-60.748-74.211-86.249-8.18-12.579-12.114-21.555-13.412-27.001 0.774-0.762 1.563-1.538 2.363-2.327 7.672-7.551 16.452-16.189 23.624-24.775 9.611-11.504 19.251-26.1 23.333-44.777 8.432-38.593-9.851-77.976-46.33-123.343zM599.245 625.648c0.002-0.002 0.004-0.004 0.006-0.006l-0.006 0.006z"></path>
</svg>
