<svg width="20" height="20" viewBox="0 0 20 20" fill="none" xmlns="http://www.w3.org/2000/svg">
<path d="M13.7647 16.951C14.5444 16.951 15.1765 16.3214 15.1765 15.5448C15.1765 14.7681 14.5444 14.1385 13.7647 14.1385C12.985 14.1385 12.353 14.7681 12.353 15.5448C12.353 16.3214 12.985 16.951 13.7647 16.951Z" fill="black"/>
<path d="M9.05884 16.951C9.83854 16.951 10.4706 16.3214 10.4706 15.5448C10.4706 14.7681 9.83854 14.1385 9.05884 14.1385C8.27915 14.1385 7.64708 14.7681 7.64708 15.5448C7.64708 16.3214 8.27915 16.951 9.05884 16.951Z" fill="black"/>
<path d="M15.3648 12.2635H7.74124L5.76477 5.70102H17.0589L15.3648 12.2635Z" fill="black"/>
<path fill-rule="evenodd" clip-rule="evenodd" d="M1.99835 2.9375C1.99835 2.41973 2.41973 2 2.93953 2H4.00005C4.78052 2 5.48546 2.50299 5.71412 3.26197L6.33223 5H17.0588C17.353 5 17.6303 5.13701 17.8082 5.37033C17.9862 5.60366 18.0444 5.90645 17.9656 6.18876L16.4985 11.7019C16.2478 12.5967 15.4233 13.201 14.5019 13.201H8.30365C7.39757 13.201 6.58264 12.6167 6.31906 11.7415L3.93351 4H2.93953C2.41973 4 1.99835 3.45527 1.99835 2.9375ZM6.89691 7.13484L8.12203 11.2028C8.1408 11.2651 8.20794 11.326 8.30365 11.326H14.5019C14.5991 11.326 14.6671 11.2635 14.6852 11.1987L15.8201 7.13484H6.89691Z" fill="black"/>
</svg>
