<svg width="20" height="20" viewBox="0 0 20 20" fill="none" xmlns="http://www.w3.org/2000/svg">
<path d="M3 12C3 11.4477 3.44772 11 4 11C4.55228 11 5 11.4477 5 12V14.1765C5 14.6313 4.63129 15 4.17647 15H3.82353C3.36871 15 3 14.6313 3 14.1765V12Z" fill="black"/>
<path d="M9 6C9 5.44772 9.44772 5 10 5C10.5523 5 11 5.44772 11 6V14.1765C11 14.6313 10.6313 15 10.1765 15H9.82353C9.36871 15 9 14.6313 9 14.1765V6Z" fill="black"/>
<path d="M12 6C12 5.44772 12.4477 5 13 5C13.5523 5 14 5.44772 14 6V14.1765C14 14.6313 13.6313 15 13.1765 15H12.8235C12.3687 15 12 14.6313 12 14.1765V6Z" fill="black"/>
<path d="M6 6C6 5.44772 6.44772 5 7 5C7.55228 5 8 5.44772 8 6V14.1765C8 14.6313 7.63129 15 7.17647 15H6.82353C6.36871 15 6 14.6313 6 14.1765V6Z" fill="black"/>
<path d="M15 12C15 11.4477 15.4477 11 16 11C16.5523 11 17 11.4477 17 12V14.1765C17 14.6313 16.6313 15 16.1765 15H15.8235C15.3687 15 15 14.6313 15 14.1765V12Z" fill="black"/>
</svg>
