<svg width="20" height="20" viewBox="0 0 20 20" fill="none" xmlns="http://www.w3.org/2000/svg">
<path fill-rule="evenodd" clip-rule="evenodd" d="M7.00397 10.7071C7.39449 10.3166 7.3945 9.68342 7.00397 9.29289L4.70711 6.99603C4.31658 6.60551 4.31658 5.97234 4.70711 5.58182L5.58182 4.70711C5.97234 4.31658 6.6055 4.31658 6.99603 4.70711L9.29289 7.00397C9.68342 7.39449 10.3166 7.3945 10.7071 7.00397L13.004 4.70711C13.3945 4.31658 14.0277 4.31658 14.4182 4.70711L15.2929 5.58182C15.6834 5.97234 15.6834 6.6055 15.2929 6.99603L12.996 9.29289C12.6055 9.68342 12.6055 10.3166 12.996 10.7071L15.2929 13.004C15.6834 13.3945 15.6834 14.0277 15.2929 14.4182L14.4182 15.2929C14.0277 15.6834 13.3945 15.6834 13.004 15.2929L10.7071 12.996C10.3166 12.6055 9.68342 12.6055 9.29289 12.996L6.99603 15.2929C6.60551 15.6834 5.97234 15.6834 5.58182 15.2929L4.70711 14.4182C4.31658 14.0277 4.31658 13.3945 4.70711 13.004L7.00397 10.7071Z" fill="black"/>
</svg>
