<svg width="30" height="30" viewBox="0 0 30 30" fill="none" xmlns="http://www.w3.org/2000/svg">
<path d="M9 4V9H11V6H17V9H19V6H25V24H23V26H27V4H9ZM8 11C6.35455 11 5 12.3545 5 14V15.416C3.89322 15.8593 3 16.743 3 18V23V24V26H5V24H18V26H20V24V23V18C20 16.743 19.1068 15.8593 18 15.416V14C18 12.3545 16.6455 11 15 11H8ZM8 13H15C15.5545 13 16 13.4455 16 14V15.416C14.8932 15.8593 14 16.743 14 18H9C9 16.743 8.10678 15.8593 7 15.416V14C7 13.4455 7.44546 13 8 13ZM21 13C20.4477 13 20 13.4477 20 14C20 14.5523 20.4477 15 21 15C21.5523 15 22 14.5523 22 14C22 13.4477 21.5523 13 21 13ZM6 17C6.55455 17 7 17.4455 7 18V20H16V18C16 17.4455 16.4455 17 17 17C17.5545 17 18 17.4455 18 18V22H5V18C5 17.4455 5.44545 17 6 17Z" fill="#737373"/>
</svg>
