<!-- Generated by IcoMoon.io -->
<svg version="1.1" xmlns="http://www.w3.org/2000/svg" width="1024" height="1024" viewBox="0 0 1024 1024">
<title></title>
<g id="icomoon-ignore">
</g>
<path d="M964.097 275.138c-39.756-67.929-95.667-120.485-167.678-157.696-72.065-37.264-154.882-55.95-248.427-56.002h-459.518c-11.658 0.048-23.193 2.482-33.94 7.162s-20.493 11.515-28.678 20.11c-16.594 17.444-25.883 40.953-25.856 65.437v78.185l538.214 0.318c86.299 0 155.366 25.099 206.488 75.323 51.126 50.224 77.058 118.1 77.058 204.025 0 85.897-25.625 153.825-77.107 204.026-51.458 50.196-120.218 75.297-206.517 75.297h-218.29v-214.946h-77.593c-21.221 0-41.702 8.078-57.549 22.688-15.924 14.685-26.149 34.861-28.774 56.771v306.725h392.164c93.696 0 176.513-18.686 248.398-56.001 71.885-37.372 127.795-89.928 167.732-157.696 40.038-67.903 59.777-146.805 59.777-236.941 0-90.114-19.841-168.883-59.904-236.784z"></path>
<path d="M319.062 438.112c0.008-16.687-4.739-33.005-13.645-46.912-8.855-13.867-21.491-24.696-36.301-31.116-14.786-6.411-31.089-8.086-46.805-4.814s-30.122 11.347-41.363 23.18c-11.304 11.887-18.985 26.952-22.089 43.323-3.104 16.369-1.494 33.32 4.63 48.751 6.113 15.411 16.501 28.596 29.85 37.902 15.547 10.821 34.257 15.683 52.898 13.742 18.642-1.938 36.042-10.559 49.196-24.372 15.165-15.896 23.657-37.345 23.629-59.688z"></path>
</svg>
