<svg width="20" height="20" viewBox="0 0 20 20" fill="none" xmlns="http://www.w3.org/2000/svg">
<path d="M6 5.5C6 4.11929 7.11929 3 8.5 3H11.5C12.8807 3 14 4.11929 14 5.5C14 6.88071 12.8807 8 11.5 8H8.5C7.11929 8 6 6.88071 6 5.5Z" fill="black"/>
<path fill-rule="evenodd" clip-rule="evenodd" d="M4 5C3.44772 5 3 5.44772 3 6C3 6.55228 3.44772 7 4 7H5V15C5 16.1046 5.89543 17 7 17H13C14.1046 17 15 16.1046 15 15V7H16C16.5523 7 17 6.55228 17 6C17 5.44772 16.5523 5 16 5H4ZM8 8C7.44772 8 7 8.44771 7 9V14C7 14.5523 7.44772 15 8 15C8.55228 15 9 14.5523 9 14V9C9 8.44772 8.55228 8 8 8ZM12 8C11.4477 8 11 8.44771 11 9V14C11 14.5523 11.4477 15 12 15C12.5523 15 13 14.5523 13 14V9C13 8.44772 12.5523 8 12 8Z" fill="black"/>
</svg>
