<svg version="1.1" xmlns="http://www.w3.org/2000/svg" width="1024" height="1024" viewBox="0 0 1024 1024">
<path d="M586.26 313.344h-463.38v-53.248h490.004c14.701 0 26.624 11.92 26.624 26.624v79.39h146.317c7.705 0 15.028 3.337 20.087 9.148l115.294 132.518c4.215 4.846 6.537 11.051 6.537 17.474v159.023c0 14.705-11.919 26.624-26.624 26.624h-64.594c-11.833 31.801-44.253 53.006-79.524 53.006-44.397 0-84.271-33.591-84.271-79.63s39.875-79.63 84.271-79.63c35.271 0 67.69 21.201 79.524 53.006h37.97v-122.438l-100.798-115.855h-134.189v264.917c0 14.705-11.923 26.624-26.624 26.624h-172.945v-53.248h146.321zM439.939 419.357h-259.412v-53.246h259.412zM382.293 525.373h-259.413v-53.248h259.413zM295.822 657.891c-19.281 0-31.024 13.869-31.024 26.382 0 12.509 11.742 26.382 31.024 26.382s31.024-13.873 31.024-26.382c0-12.513-11.742-26.382-31.024-26.382zM211.551 684.274c0-46.039 39.877-79.63 84.272-79.63s84.272 33.591 84.272 79.63c0 46.039-39.877 79.63-84.272 79.63s-84.272-33.591-84.272-79.63zM757.002 657.891c-19.284 0-31.023 13.869-31.023 26.382 0 12.509 11.739 26.382 31.023 26.382 19.28 0 31.023-13.873 31.023-26.382 0-12.513-11.743-26.382-31.023-26.382z"></path>
</svg>
