<!-- Generated by IcoMoon.io -->
<svg version="1.1" xmlns="http://www.w3.org/2000/svg" width="1024" height="1024" viewBox="0 0 1024 1024">
<title></title>
<g id="icomoon-ignore">
</g>
<path fill="none" stroke-linejoin="round" stroke-linecap="butt" stroke-miterlimit="10" stroke-width="53.248" stroke="#000" d="M122.88 286.72h490.004v397.554M612.884 684.274h-172.945M612.884 684.274v-291.539h172.941l115.294 132.516v159.023h-86.471M814.649 684.274c0 29.274-25.809 53.006-57.647 53.006s-57.647-23.732-57.647-53.006c0-29.274 25.809-53.006 57.647-53.006s57.647 23.732 57.647 53.006zM180.528 392.734h259.412M122.88 498.749h259.413M353.47 684.274c0 29.274-25.81 53.006-57.648 53.006s-57.648-23.732-57.648-53.006c0-29.274 25.81-53.006 57.648-53.006s57.648 23.732 57.648 53.006z"></path>
</svg>
