<?xml version="1.0" encoding="UTF-8" standalone="no"?>
<svg
   xmlns:dc="http://purl.org/dc/elements/1.1/"
   xmlns:cc="http://creativecommons.org/ns#"
   xmlns:rdf="http://www.w3.org/1999/02/22-rdf-syntax-ns#"
   xmlns:svg="http://www.w3.org/2000/svg"
   xmlns="http://www.w3.org/2000/svg"
   xmlns:sodipodi="http://sodipodi.sourceforge.net/DTD/sodipodi-0.dtd"
   xmlns:inkscape="http://www.inkscape.org/namespaces/inkscape"
   inkscape:version="1.0 (4035a4f, 2020-05-01)"
   sodipodi:docname="delivery-2.svg"
   id="svg12"
   version="1.1"
   viewBox="0 0 25 25"
   height="25"
   width="25">
  <metadata
     id="metadata18">
    <rdf:RDF>
      <cc:Work
         rdf:about="">
        <dc:format>image/svg+xml</dc:format>
        <dc:type
           rdf:resource="http://purl.org/dc/dcmitype/StillImage" />
      </cc:Work>
    </rdf:RDF>
  </metadata>
  <defs
     id="defs16" />
  <sodipodi:namedview
     inkscape:current-layer="svg12"
     inkscape:window-maximized="0"
     inkscape:window-y="23"
     inkscape:window-x="0"
     inkscape:cy="11.717687"
     inkscape:cx="11.22449"
     inkscape:zoom="29.4"
     showgrid="false"
     id="namedview14"
     inkscape:window-height="896"
     inkscape:window-width="1480"
     inkscape:pageshadow="2"
     inkscape:pageopacity="0"
     guidetolerance="10"
     gridtolerance="10"
     objecttolerance="10"
     borderopacity="1"
     bordercolor="#666666"
     pagecolor="#ffffff" />
  <g
     style="opacity:1"
     id="g861">
    <path
       id="path863"
       d="M 14.313,7.65001 H 3 v -1.3 h 11.963 c 0.3589,0 0.65,0.29101 0.65,0.65 v 1.93823 h 3.5722 c 0.1881,0 0.3669,0.08146 0.4904,0.22335 l 2.8148,3.23531 c 0.1029,0.1183 0.1596,0.2698 0.1596,0.4266 v 3.8824 c 0,0.359 -0.291,0.65 -0.65,0.65 h -1.577 c -0.2889,0.7764 -1.0804,1.2941 -1.9415,1.2941 -1.0839,0 -2.0574,-0.8201 -2.0574,-1.9441 0,-1.124 0.9735,-1.9441 2.0574,-1.9441 0.8611,0 1.6526,0.5176 1.9415,1.2941 H 21.35 V 13.0667 L 18.8891,10.2382 H 15.613 v 6.4677 c 0,0.359 -0.2911,0.65 -0.65,0.65 h -4.2223 v -1.3 H 14.313 Z M 10.7407,10.2382 H 4.40741 V 8.93824 H 10.7407 Z M 9.33333,12.8265 H 3 v -1.3 h 6.33333 z m -2.11111,3.2353 c -0.47073,0 -0.75741,0.3386 -0.75741,0.6441 0,0.3054 0.28668,0.6441 0.75741,0.6441 0.47074,0 0.75741,-0.3387 0.75741,-0.6441 0,-0.3055 -0.28667,-0.6441 -0.75741,-0.6441 z m -2.05741,0.6441 c 0,-1.124 0.97357,-1.9441 2.05741,-1.9441 1.08385,0 2.05741,0.8201 2.05741,1.9441 0,1.124 -0.97356,1.9441 -2.05741,1.9441 -1.08384,0 -2.05741,-0.8201 -2.05741,-1.9441 z M 18.4815,16.0618 c -0.4708,0 -0.7574,0.3386 -0.7574,0.6441 0,0.3054 0.2866,0.6441 0.7574,0.6441 0.4707,0 0.7574,-0.3387 0.7574,-0.6441 0,-0.3055 -0.2867,-0.6441 -0.7574,-0.6441 z"
       style="color:#000000;font-style:normal;font-variant:normal;font-weight:normal;font-stretch:normal;font-size:medium;line-height:normal;font-family:sans-serif;font-variant-ligatures:normal;font-variant-position:normal;font-variant-caps:normal;font-variant-numeric:normal;font-variant-alternates:normal;font-variant-east-asian:normal;font-feature-settings:normal;font-variation-settings:normal;text-indent:0;text-align:start;text-decoration:none;text-decoration-line:none;text-decoration-style:solid;text-decoration-color:#000000;letter-spacing:normal;word-spacing:normal;text-transform:none;writing-mode:lr-tb;direction:ltr;text-orientation:mixed;dominant-baseline:auto;baseline-shift:baseline;text-anchor:start;white-space:normal;shape-padding:0;shape-margin:0;inline-size:0;clip-rule:evenodd;display:inline;overflow:visible;visibility:visible;isolation:auto;mix-blend-mode:normal;color-interpolation:sRGB;color-interpolation-filters:linearRGB;solid-color:#000000;solid-opacity:1;vector-effect:none;fill:#000000;fill-opacity:1;fill-rule:evenodd;stroke:none;stroke-width:0;stroke-linecap:butt;stroke-linejoin:miter;stroke-miterlimit:4;stroke-dasharray:none;stroke-dashoffset:0;stroke-opacity:1.0;color-rendering:auto;image-rendering:auto;shape-rendering:auto;text-rendering:auto;enable-background:accumulate;stop-color:#000000;stop-opacity:1;" />
    <path
       id="path865"
       d="M 2.984375 6.3339844 L 2.984375 7.6660156 L 14.296875 7.6660156 L 14.296875 16.039062 L 10.724609 16.039062 L 10.724609 17.371094 L 14.962891 17.371094 C 15.330439 17.371094 15.628906 17.072727 15.628906 16.705078 L 15.628906 10.253906 L 18.880859 10.253906 L 21.333984 13.072266 L 21.333984 16.039062 L 20.427734 16.039062 C 20.131849 15.263981 19.344491 14.746094 18.482422 14.746094 C 17.390451 14.746094 16.408203 15.57184 16.408203 16.705078 C 16.408203 17.838317 17.390451 18.666016 18.482422 18.666016 C 19.345466 18.666016 20.134593 18.147543 20.429688 17.371094 L 22 17.371094 C 22.367646 17.371094 22.666016 17.072724 22.666016 16.705078 L 22.666016 12.824219 C 22.666016 12.663562 22.607382 12.507926 22.501953 12.386719 L 19.6875 9.1503906 C 19.56097 9.0050195 19.378266 8.921875 19.185547 8.921875 L 15.628906 8.921875 L 15.628906 7 C 15.628906 6.6323605 15.33044 6.3339844 14.962891 6.3339844 L 2.984375 6.3339844 z M 3.015625 6.3652344 L 14.962891 6.3652344 C 15.313142 6.3652344 15.597656 6.6496595 15.597656 7 L 15.597656 8.9550781 L 19.185547 8.9550781 C 19.369027 8.9550781 19.543592 9.0334661 19.664062 9.171875 L 22.478516 12.408203 C 22.578886 12.523595 22.634766 12.671276 22.634766 12.824219 L 22.634766 16.705078 C 22.634766 17.055432 22.350354 17.339844 22 17.339844 L 20.412109 17.339844 L 20.408203 17.349609 C 20.121823 18.119236 19.337109 18.634766 18.482422 18.634766 C 17.406592 18.634766 16.439453 17.81984 16.439453 16.705078 C 16.439453 15.590317 17.406592 14.777344 18.482422 14.777344 C 19.33711 14.777344 20.121823 15.29082 20.408203 16.060547 L 20.412109 16.072266 L 21.365234 16.072266 L 21.365234 13.060547 L 18.896484 10.222656 L 15.597656 10.222656 L 15.597656 16.705078 C 15.597656 17.055429 15.313142 17.339844 14.962891 17.339844 L 10.755859 17.339844 L 10.755859 16.072266 L 14.328125 16.072266 L 14.328125 7.6347656 L 14.3125 7.6347656 L 3.015625 7.6347656 L 3.015625 6.3652344 z M 4.390625 8.921875 L 4.390625 10.253906 L 10.755859 10.253906 L 10.755859 10.238281 L 10.755859 8.921875 L 4.390625 8.921875 z M 4.4238281 8.9550781 L 10.724609 8.9550781 L 10.724609 10.222656 L 4.4238281 10.222656 L 4.4238281 8.9550781 z M 2.984375 11.509766 L 2.984375 12.841797 L 9.3496094 12.841797 L 9.3496094 12.826172 L 9.3496094 11.509766 L 2.984375 11.509766 z M 3.015625 11.542969 L 9.3164062 11.542969 L 9.3164062 12.810547 L 3.015625 12.810547 L 3.015625 11.542969 z M 7.2226562 14.746094 C 6.1307452 14.746094 5.1484375 15.571839 5.1484375 16.705078 C 5.1484375 17.838317 6.1307452 18.666016 7.2226562 18.666016 C 8.3145772 18.666016 9.2949219 17.838317 9.2949219 16.705078 C 9.2949219 15.571839 8.3145772 14.746094 7.2226562 14.746094 z M 7.2226562 14.777344 C 8.2984353 14.777344 9.2636719 15.590317 9.2636719 16.705078 C 9.2636719 17.819839 8.2984353 18.634766 7.2226562 18.634766 C 6.1468873 18.634766 5.1816406 17.819839 5.1816406 16.705078 C 5.1816406 15.590317 6.1468873 14.777344 7.2226562 14.777344 z M 7.2226562 16.044922 C 6.7442536 16.044922 6.4492188 16.389569 6.4492188 16.705078 C 6.4492188 17.020491 6.7442514 17.365234 7.2226562 17.365234 C 7.701071 17.365234 7.9960938 17.020491 7.9960938 16.705078 C 7.9960938 16.389569 7.7010687 16.044922 7.2226562 16.044922 z M 18.482422 16.044922 C 18.00395 16.044922 17.708984 16.389571 17.708984 16.705078 C 17.708984 17.020488 18.003948 17.365234 18.482422 17.365234 C 18.960797 17.365234 19.255859 17.020492 19.255859 16.705078 C 19.255859 16.389568 18.960795 16.044922 18.482422 16.044922 z M 7.2226562 16.078125 C 7.6857238 16.078125 7.9628906 16.409587 7.9628906 16.705078 C 7.9628906 17.000466 7.6857215 17.333984 7.2226562 17.333984 C 6.7596011 17.333984 6.4804688 17.000465 6.4804688 16.705078 C 6.4804688 16.409588 6.7595989 16.078125 7.2226562 16.078125 z M 18.482422 16.078125 C 18.945449 16.078125 19.222656 16.409588 19.222656 16.705078 C 19.222656 17.000465 18.945446 17.333984 18.482422 17.333984 C 18.019296 17.333984 17.740234 17.000468 17.740234 16.705078 C 17.740234 16.409585 18.019293 16.078125 18.482422 16.078125 z "
       style="color:#000000;font-style:normal;font-variant:normal;font-weight:normal;font-stretch:normal;font-size:medium;line-height:normal;font-family:sans-serif;font-variant-ligatures:normal;font-variant-position:normal;font-variant-caps:normal;font-variant-numeric:normal;font-variant-alternates:normal;font-variant-east-asian:normal;font-feature-settings:normal;font-variation-settings:normal;text-indent:0;text-align:start;text-decoration:none;text-decoration-line:none;text-decoration-style:solid;text-decoration-color:#000000;letter-spacing:normal;word-spacing:normal;text-transform:none;writing-mode:lr-tb;direction:ltr;text-orientation:mixed;dominant-baseline:auto;baseline-shift:baseline;text-anchor:start;white-space:normal;shape-padding:0;shape-margin:0;inline-size:0;clip-rule:evenodd;display:inline;overflow:visible;visibility:visible;isolation:auto;mix-blend-mode:normal;color-interpolation:sRGB;color-interpolation-filters:linearRGB;solid-color:#000000;solid-opacity:1;vector-effect:none;fill:#000000;fill-opacity:1;fill-rule:evenodd;stroke:none;stroke-width:0;stroke-linecap:butt;stroke-linejoin:miter;stroke-miterlimit:4;stroke-dasharray:none;stroke-dashoffset:0;stroke-opacity:1.0;color-rendering:auto;image-rendering:auto;shape-rendering:auto;text-rendering:auto;enable-background:accumulate;stop-color:#000000;stop-opacity:1;" />
  </g>
</svg>
