<svg width="50" height="50" viewBox="0 0 50 50" fill="none" xmlns="http://www.w3.org/2000/svg">
<path d="M6.87364 23.227C7.75811 24.1656 8.87724 24.8876 10.0866 25.3208C10.5018 25.4652 10.935 25.5916 11.3863 25.6638C11.8195 25.754 12.2707 25.7901 12.722 25.8082C12.7942 25.8082 12.8664 25.8082 12.9386 25.8082C14.148 25.8082 15.3754 25.5374 16.4765 25.032C17.3068 24.6529 18.0649 24.1295 18.7147 23.4977C19.6534 22.5952 20.3934 21.4941 20.8266 20.2667C20.9891 19.8335 21.0974 19.4003 21.1877 18.949C21.2779 18.4977 21.314 18.0284 21.3321 17.5772C21.3682 16.2956 21.0794 14.9959 20.5378 13.8227C20.1407 12.9923 19.6173 12.2342 18.9855 11.5664C18.101 10.6458 16.9819 9.92377 15.7725 9.49056C15.3574 9.34615 14.9241 9.2198 14.4729 9.1476C14.0216 9.05734 13.5884 9.02124 13.1371 9.00319C11.8556 8.96709 10.5559 9.23785 9.38265 9.77936C8.55233 10.1765 7.79421 10.6819 7.12634 11.3137C6.18772 12.1981 5.4657 13.3173 5.03249 14.5266C4.87003 14.9598 4.76173 15.3931 4.67148 15.8443C4.58123 16.2956 4.54513 16.7468 4.52708 17.1981C4.49097 18.4977 4.77978 19.7974 5.33935 20.9707C5.73646 21.819 6.24187 22.5771 6.87364 23.227ZM6.47653 16.2053C6.54873 15.8443 6.63898 15.5014 6.76533 15.1584C7.10829 14.2198 7.66786 13.3534 8.40793 12.6494C8.93139 12.144 9.52705 11.7469 10.1769 11.44C11.0433 11.0429 12 10.8263 12.9386 10.8263C12.9927 10.8263 13.0469 10.8263 13.101 10.8263C13.444 10.8263 13.805 10.8804 14.148 10.9346C14.4909 11.0068 14.8339 11.097 15.1588 11.2053C16.0974 11.5483 16.9819 12.1079 17.6678 12.8299C18.1732 13.3534 18.5703 13.949 18.8772 14.5988C19.3104 15.5014 19.527 16.5302 19.4909 17.523C19.4909 17.884 19.4368 18.245 19.3826 18.588C19.3104 18.949 19.2202 19.292 19.0938 19.6169C18.7508 20.5735 18.1732 21.44 17.4332 22.1439C16.9097 22.6313 16.3321 23.0465 15.6823 23.3353C14.7617 23.7685 13.7328 23.967 12.74 23.949C12.3971 23.949 12.0361 23.8948 11.6931 23.8407C11.3502 23.7685 11.0072 23.6782 10.6823 23.5699C9.72561 23.227 8.85919 22.6674 8.17327 21.9454C7.68591 21.4219 7.27075 20.8443 6.96389 20.1945C6.53068 19.2739 6.31407 18.2631 6.33212 17.2523C6.36822 16.9093 6.40432 16.5483 6.47653 16.2053Z" fill="black"/>
<path d="M11.657 18.6421C11.8375 18.8407 12.0722 18.9851 12.3249 19.0753C12.4151 19.1114 12.5054 19.1295 12.5956 19.1475C12.6859 19.1656 12.7761 19.1836 12.8844 19.1836C13.1552 19.1836 13.4259 19.1295 13.6787 19.0212C13.8592 18.949 14.0036 18.8407 14.148 18.6963C14.3465 18.5158 14.4909 18.2811 14.5992 18.0104C14.6353 17.9201 14.6534 17.8299 14.6714 17.7396C14.6895 17.6493 14.7075 17.541 14.7075 17.4508C14.7075 17.3244 14.6895 17.1981 14.6714 17.0898L16.4584 15.4833C16.8375 15.1403 16.8555 14.5627 16.5306 14.1837C16.1877 13.8046 15.6101 13.7865 15.231 14.1115L13.444 15.7179C13.3898 15.6999 13.3176 15.6818 13.2635 15.6638C13.1732 15.6457 13.083 15.6277 12.9747 15.6277C12.7039 15.6277 12.4332 15.6818 12.1805 15.7901C12 15.8804 11.8375 15.9887 11.7112 16.1151C11.5126 16.2956 11.3682 16.5302 11.2779 16.7829C11.2418 16.8732 11.2238 16.9634 11.2057 17.0537C11.1877 17.1439 11.1696 17.2522 11.1696 17.3425C11.1696 17.6313 11.2238 17.9021 11.3321 18.1367C11.4223 18.3353 11.5306 18.4977 11.657 18.6421Z" fill="black"/>
<path d="M44.1478 25.0501H40.1767L36.5305 16.7107C36.2598 16.097 35.6461 15.6999 34.9782 15.6999H24.7797C24.2743 15.6999 23.8591 16.1151 23.8591 16.6205V28.1908H2.92057C2.41516 28.1908 2 28.606 2 29.1114V36.133C2 37.0717 2.75812 37.8298 3.69674 37.8298H6.33211C6.83752 37.8298 7.25269 37.4146 7.25269 36.9092C7.25269 36.4038 6.83752 35.9886 6.33211 35.9886H3.84115V30.0139H24.7797C25.2851 30.0139 25.7003 29.5988 25.7003 29.0934V17.505H34.888L38.2634 25.2306L38.7507 26.3136C38.8952 26.6385 39.2201 26.8551 39.5811 26.8551H44.1478C44.7255 26.8551 45.1767 27.3244 45.1767 27.884V35.9525H42.6857C42.1803 35.9525 41.7652 36.3677 41.7652 36.8731C41.7652 37.3785 42.1803 37.7937 42.6857 37.7937H45.3031C46.2417 37.7937 46.9998 37.0356 46.9998 36.0969V27.902C47.0179 26.3316 45.7182 25.0501 44.1478 25.0501Z" fill="black"/>
<path d="M30.7724 35.9706H18.2453C17.7399 35.9706 17.3248 36.3857 17.3248 36.8911C17.3248 37.3965 17.7399 37.8117 18.2453 37.8117H30.7543C31.2597 37.8117 31.6749 37.3965 31.6749 36.8911C31.6749 36.3857 31.2778 35.9706 30.7724 35.9706Z" fill="black"/>
<path d="M15.7184 36.4399C15.4657 35.7179 14.9784 35.0861 14.3286 34.6529C14.3105 34.6349 14.2744 34.6168 14.2564 34.5988L13.769 34.3461C13.7329 34.328 13.6968 34.31 13.6787 34.31C13.6246 34.2919 13.5704 34.2739 13.4621 34.2378L13.1192 34.1294C13.0289 34.1114 12.9387 34.0933 12.8665 34.0753C12.7762 34.0572 12.6679 34.0572 12.5416 34.0392H12.2528L12 34.0572C11.9098 34.0572 11.8195 34.0753 11.7293 34.0933C11.639 34.1114 11.5668 34.1294 11.4766 34.1475C11.4585 34.1475 11.4585 34.1475 11.4405 34.1475L11.2058 34.2017C11.1336 34.2197 11.0614 34.2558 10.9531 34.2919L10.7185 34.4002C9.85204 34.8154 9.16612 35.5735 8.84122 36.458C8.84122 36.476 8.80511 36.5482 8.80511 36.5663C8.67876 36.9273 8.62461 37.3063 8.62461 37.6854C8.62461 39.689 10.2492 41.3316 12.2708 41.3316C14.2744 41.3316 15.917 39.707 15.917 37.6854C15.917 37.3063 15.8628 36.9453 15.7365 36.5482L15.7184 36.4399ZM12.2889 39.4904C11.2961 39.4904 10.4838 38.6782 10.4838 37.6854C10.4838 37.5049 10.5199 37.3063 10.556 37.18L10.5921 37.0897C10.7546 36.6385 11.0975 36.2594 11.4946 36.0609L11.9098 35.9164C11.9459 35.9164 11.9639 35.8984 12.0181 35.8984C12.0722 35.8984 12.1083 35.8803 12.1083 35.8803H12.4152C12.4694 35.8803 12.5055 35.8984 12.5777 35.8984C12.6138 35.8984 12.6499 35.9164 12.6499 35.9164L12.9026 35.9886L13.3358 36.2233C13.6426 36.4399 13.8773 36.7468 14.0036 37.1078L14.0217 37.1619C14.0759 37.3244 14.112 37.5229 14.112 37.7034C14.0939 38.6782 13.2816 39.4904 12.2889 39.4904Z" fill="black"/>
<path d="M40.1586 36.458C39.8879 35.718 39.4186 35.0862 38.7687 34.653C38.7326 34.6349 38.6965 34.6169 38.6785 34.5988L38.0648 34.292C38.0106 34.2739 37.9565 34.2378 37.9023 34.2378L37.5594 34.1476C37.4691 34.1295 37.3789 34.1115 37.3067 34.0934C37.2164 34.0754 37.1261 34.0754 36.9637 34.0573H36.5846C36.5485 34.0573 36.5305 34.0573 36.4944 34.0573C36.35 34.0754 36.2597 34.0754 36.1875 34.0934C36.0973 34.1115 36.0251 34.1295 35.9348 34.1476C35.9168 34.1476 35.9168 34.1476 35.8987 34.1476L35.6641 34.2017C35.5919 34.2198 35.5377 34.2378 35.4294 34.292L35.1947 34.4003C34.3283 34.8154 33.6244 35.5736 33.3175 36.458C33.3175 36.4761 33.2814 36.5663 33.2814 36.5663C33.155 36.9273 33.1009 37.3064 33.1009 37.6855C33.1009 39.6891 34.7254 41.3316 36.7471 41.3316C38.7507 41.3316 40.3933 39.7071 40.3933 37.6855C40.3933 37.3064 40.3391 36.9273 40.1947 36.5302L40.1586 36.458ZM36.729 39.4905C35.7363 39.4905 34.924 38.6782 34.924 37.6855C34.924 37.4869 34.9601 37.3064 34.9962 37.18C34.9962 37.162 35.0323 37.0898 35.0323 37.0898C35.1947 36.6385 35.5377 36.2595 35.9348 36.0609L36.35 35.9165C36.3861 35.9165 36.4222 35.8985 36.4583 35.8985C36.4944 35.8985 36.5485 35.8804 36.6027 35.8804H36.8734C36.9276 35.8804 36.9817 35.8985 37.0178 35.8985C37.0539 35.8985 37.09 35.9165 37.09 35.9165L37.3067 35.9707L37.776 36.2053C38.0828 36.4219 38.2994 36.7288 38.4438 37.1078L38.4619 37.1259C38.516 37.3064 38.5521 37.4869 38.5521 37.6674C38.5341 38.6782 37.7218 39.4905 36.729 39.4905Z" fill="black"/>
</svg>
