<svg width="30" height="30" viewBox="0 0 30 30" fill="none" xmlns="http://www.w3.org/2000/svg">
<path d="M6.33333 7C4.90807 7 3.73333 8.14145 3.73333 9.52632V11.3684C2.73125 11.7204 2 12.648 2 13.7368V23H3.73333V21.3158H26.2667V23H28V13.7368C28 12.648 27.2687 11.7204 26.2667 11.3684V9.52632C26.2667 8.14145 25.0919 7 23.6667 7H6.33333ZM6.33333 8.68421H23.6667C24.1474 8.68421 24.5333 9.05921 24.5333 9.52632V11.3684C23.5312 11.7204 22.8 12.648 22.8 13.7368V15.4211H7.2V13.7368C7.2 12.648 6.46875 11.7204 5.46667 11.3684V9.52632C5.46667 9.05921 5.85261 8.68421 6.33333 8.68421ZM4.6 12.8947C5.08073 12.8947 5.46667 13.2697 5.46667 13.7368V17.1053H24.5333V13.7368C24.5333 13.2697 24.9193 12.8947 25.4 12.8947C25.8807 12.8947 26.2667 13.2697 26.2667 13.7368V19.6316H3.73333V13.7368C3.73333 13.2697 4.11927 12.8947 4.6 12.8947Z" fill="#737373"/>
</svg>
