<!-- Generated by IcoMoon.io -->
<svg version="1.1" xmlns="http://www.w3.org/2000/svg" width="1024" height="1024" viewBox="0 0 1024 1024">
<title></title>
<g id="icomoon-ignore">
</g>
<path d="M512.077 153.6c-319.161 0-470.704 263.363-507.469 338.537-6.143 12.544-6.143 27.092 0 39.636 36.765 75.223 188.309 338.627 507.469 338.627 318.044 0 469.688-261.499 507.105-337.751 6.426-13.128 6.426-28.173 0-41.299-37.417-76.25-189.061-337.75-507.105-337.75v0zM512.077 288c128.492 0 232.694 100.307 232.694 224s-104.202 224-232.694 224c-128.493 0-232.692-100.306-232.692-224s104.2-224 232.692-224zM512.077 377.6c-77.107 0-139.615 60.173-139.615 134.4 0 74.225 62.508 134.4 139.615 134.4s139.617-60.175 139.617-134.4c0-74.227-62.51-134.4-139.617-134.4z"></path>
</svg>
