<svg width="20" height="20" viewBox="0 0 20 20" fill="none" xmlns="http://www.w3.org/2000/svg">
<path d="M7 8H5V16C5 16.5523 5.44772 17 6 17C6.55228 17 7 16.5523 7 16V8Z" fill="black"/>
<path fill-rule="evenodd" clip-rule="evenodd" d="M6 7C6.55228 7 7 6.55228 7 6C7 5.44772 6.55228 5 6 5C5.44772 5 5 5.44772 5 6C5 6.55228 5.44772 7 6 7ZM6 9C7.65685 9 9 7.65685 9 6C9 4.34315 7.65685 3 6 3C4.34315 3 3 4.34315 3 6C3 7.65685 4.34315 9 6 9Z" fill="black"/>
<path d="M15 4C15 3.44772 14.5523 3 14 3C13.4477 3 13 3.44772 13 4V11C13 11.5523 13.4477 12 14 12C14.5523 12 15 11.5523 15 11V4Z" fill="black"/>
<path fill-rule="evenodd" clip-rule="evenodd" d="M14 13C14.5523 13 15 13.4477 15 14C15 14.5523 14.5523 15 14 15C13.4477 15 13 14.5523 13 14C13 13.4477 13.4477 13 14 13ZM14 11C15.6569 11 17 12.3431 17 14C17 15.6569 15.6569 17 14 17C12.3431 17 11 15.6569 11 14C11 12.3431 12.3431 11 14 11Z" fill="black"/>
</svg>
