<svg width="20" height="20" viewBox="0 0 20 20" fill="none" xmlns="http://www.w3.org/2000/svg">
<path d="M9.06502 3.74411C9.31033 2.75196 10.6897 2.75196 10.935 3.74412L11.3955 5.60682C11.5428 6.20233 12.1814 6.51662 12.7288 6.26297L14.4409 5.46959C15.3529 5.04701 16.2129 6.14912 15.6068 6.96373L14.469 8.4931C14.1052 8.98205 14.2629 9.68825 14.7983 9.96747L16.4727 10.8408C17.3646 11.306 17.0577 12.6804 16.0566 12.704L14.1772 12.7484C13.5763 12.7626 13.1344 13.3289 13.2546 13.9307L13.6304 15.8132C13.8306 16.8159 12.5879 17.4275 11.9456 16.6424L10.7399 15.1684C10.3544 14.6971 9.64561 14.6971 9.26012 15.1684L8.05435 16.6424C7.41211 17.4275 6.16936 16.8159 6.36957 15.8132L6.74543 13.9307C6.86559 13.3289 6.42367 12.7626 5.82281 12.7484L3.94338 12.704C2.94231 12.6804 2.63538 11.306 3.52727 10.8408L5.20173 9.96747C5.73706 9.68825 5.89478 8.98204 5.53101 8.4931L4.39317 6.96373C3.7871 6.14912 4.64711 5.04701 5.55908 5.46959L7.27123 6.26297C7.81861 6.51662 8.45721 6.20233 8.60445 5.60682L9.06502 3.74411Z" fill="black"/>
</svg>
