<svg width="20" height="20" viewBox="0 0 20 20" fill="none" xmlns="http://www.w3.org/2000/svg">
<path fill-rule="evenodd" clip-rule="evenodd" d="M9.99971 9.18182C8.86193 9.18182 3 6.57691 3 6.57691V6.09091C3 5.48873 3.52199 5 4.16633 5H15.8331C16.478 5 17 5.48873 17 6.09091L16.9907 6.63636C16.9907 6.63636 11.1923 9.18182 9.99971 9.18182ZM9.99971 10.6818C11.247 10.6818 16.9907 8.27273 16.9907 8.27273L17 13.9091C17 14.5113 16.478 15 15.8331 15H4.16633C3.52257 15 3 14.5113 3 13.9091L3.00932 8.27273C3.00932 8.27273 8.86193 10.6818 9.99971 10.6818Z" fill="black"/>
</svg>
