<svg width="20" height="20" viewBox="0 0 20 20" fill="none" xmlns="http://www.w3.org/2000/svg">
<path d="M10 9.65C9.5264 9.65 9.0722 9.46563 8.73731 9.13744C8.40242 8.80925 8.21429 8.36413 8.21429 7.9C8.21429 7.43587 8.40242 6.99075 8.73731 6.66256C9.0722 6.33437 9.5264 6.15 10 6.15C10.4736 6.15 10.9278 6.33437 11.2627 6.66256C11.5976 6.99075 11.7857 7.43587 11.7857 7.9C11.7857 8.12981 11.7395 8.35738 11.6498 8.5697C11.56 8.78202 11.4285 8.97493 11.2627 9.13744C11.0969 9.29994 10.9 9.42884 10.6834 9.51679C10.4667 9.60473 10.2345 9.65 10 9.65ZM10 3C8.67392 3 7.40215 3.51625 6.46447 4.43518C5.52678 5.3541 5 6.60044 5 7.9C5 11.575 10 17 10 17C10 17 15 11.575 15 7.9C15 6.60044 14.4732 5.3541 13.5355 4.43518C12.5979 3.51625 11.3261 3 10 3Z" fill="black"/>
</svg>
