<svg width="50" height="50" viewBox="0 0 50 50" fill="none" xmlns="http://www.w3.org/2000/svg">
<path d="M46.3422 7.65178C45.5056 5.76035 43.981 4.29542 42.0474 3.53514C40.1138 2.77486 37.9943 2.83049 36.0979 3.66495C35.2055 4.05436 34.4061 4.61066 33.7182 5.29677C33.3649 5.64909 33.3649 6.24248 33.7182 6.59481C34.0714 6.94713 34.6664 6.94713 35.0196 6.59481C35.5402 6.07559 36.1537 5.64909 36.8416 5.3524C38.2918 4.72192 39.9093 4.68483 41.3967 5.25968C42.8841 5.83453 44.0368 6.94713 44.6875 8.39352C46.0075 11.3975 44.6317 14.9023 41.6384 16.2188C40.9505 16.5155 40.2254 16.6824 39.4817 16.7195C38.9797 16.7381 38.5893 17.1645 38.6079 17.6652C38.6265 18.1659 39.0355 18.5553 39.5189 18.5553C39.5375 18.5553 39.5375 18.5553 39.5561 18.5553C40.5229 18.5182 41.4711 18.2957 42.3821 17.9063C46.2678 16.1632 48.0713 11.5644 46.3422 7.65178Z" fill="black"/>
<path d="M27.2481 22.0044C28.1591 22.3567 29.1259 22.5421 30.0741 22.5421C31.1339 22.5421 32.1936 22.3196 33.1976 21.8746C35.094 21.0401 36.5628 19.5196 37.325 17.591C38.0873 15.6625 38.0315 13.5486 37.1949 11.6572C36.3582 9.76573 34.8337 8.3008 32.9001 7.54052C30.9665 6.78024 28.847 6.83587 26.9506 7.67032C25.0542 8.50478 23.5855 10.0253 22.8232 11.9539C22.0609 13.8824 22.1167 15.9963 22.9533 17.8877C23.79 19.7977 25.3145 21.2441 27.2481 22.0044ZM24.5336 12.6214C25.11 11.1379 26.2255 9.98825 27.6757 9.33923C28.438 9.00545 29.256 8.83856 30.0555 8.83856C30.7806 8.83856 31.5243 8.96836 32.2122 9.24651C33.6996 9.82136 34.8523 10.934 35.503 12.3804C36.1351 13.8267 36.1723 15.44 35.596 16.9235C35.0196 18.407 33.9041 19.5567 32.4539 20.2057C31.0037 20.8361 29.3862 20.8732 27.8988 20.2984C26.4115 19.7235 25.2587 18.6109 24.608 17.1645C23.9945 15.6996 23.9573 14.1049 24.5336 12.6214Z" fill="black"/>
<path d="M16.2602 16.7751C16.3717 16.7751 16.4833 16.7566 16.5762 16.7195C17.6546 16.3116 18.7701 16.0149 19.9228 15.848C20.4248 15.7738 20.7594 15.3102 20.6851 14.8095C20.6107 14.3089 20.1459 13.9751 19.6439 14.0493C18.3797 14.2347 17.134 14.5685 15.9255 15.0135C15.4607 15.1989 15.219 15.7182 15.3863 16.1817C15.5351 16.5341 15.8883 16.7751 16.2602 16.7751Z" fill="black"/>
<path d="M40.0581 25.4905C39.6862 24.0812 39.0541 22.709 38.1989 21.4295C37.92 21.003 37.3436 20.8918 36.9346 21.1699C36.507 21.4481 36.3954 22.0229 36.6743 22.4309C37.418 23.5435 37.9572 24.7303 38.2918 25.9541C38.3848 26.2879 38.4591 26.6217 38.5149 26.9555C39.2028 30.7754 37.9758 34.7808 35.3357 37.4325C35.0196 37.7663 34.7779 38.1742 34.6849 38.5822L32.9745 44.479H29.1445L28.6983 42.7359C28.5867 42.328 28.2335 42.0498 27.8059 42.0498L18.0078 42.0127C17.5988 42.0127 17.2269 42.2909 17.1154 42.6988L16.6506 44.479H12.8392L11.7423 40.622C11.5192 39.8617 10.9428 39.1756 10.2363 38.8789C7.91229 37.8219 5.84857 36.598 4.06373 35.2629C3.91499 35.1517 3.82203 34.9662 3.82203 34.7622L3.84062 27.5489L4.826 27.5303C5.10488 27.5303 5.36517 27.382 5.5511 27.1594L9.47403 21.9673C9.49262 21.9302 9.52981 21.8931 9.5484 21.856C9.7901 21.4295 9.62277 21.0216 9.43685 20.6322C9.39966 20.5209 9.34389 20.4096 9.3067 20.2984L9.23234 20.1315C9.0836 19.7792 8.91627 19.4268 8.74894 19.0931C8.45147 18.4626 8.11681 17.8321 7.78215 17.2202C7.74497 17.146 7.70778 17.0904 7.6706 17.0162C7.72637 17.0162 7.78215 17.0162 7.85652 17.0162C7.87511 17.0162 7.8937 17.0162 7.93089 17.0162C8.86049 17.0162 9.71573 17.146 10.4966 17.4242C10.7197 17.4983 11.1845 17.7209 11.2961 17.7765C11.2961 17.7765 11.3147 17.7765 11.3147 17.795C11.482 17.8877 12.4674 18.4626 12.6905 18.6295C13.6759 19.3712 14.5125 20.354 15.0703 21.4852C15.2934 21.9302 15.8511 22.1156 16.2973 21.8931C16.7436 21.6706 16.9295 21.1143 16.7064 20.6693C16.0185 19.297 15.0145 18.0917 13.7874 17.1645C13.4713 16.9235 12.5045 16.3672 12.2443 16.2188C12.0026 16.0519 11.6493 15.8851 11.0915 15.6996C10.1433 15.3658 9.12078 15.1989 8.00525 15.1989C7.78215 15.1989 7.55904 15.1989 7.37312 15.2175L7.01987 15.236C6.9641 15.236 6.9641 15.236 6.90832 15.2546C6.87114 15.2546 6.83395 15.2731 6.79677 15.2731C6.31337 15.3844 5.90435 15.7182 5.69983 16.2003C5.51391 16.6824 5.71842 17.146 5.79279 17.35C5.84857 17.5354 5.94153 17.7023 6.07167 17.9248C6.07167 17.9434 6.10886 17.9805 6.12745 17.999L6.18323 18.0917C6.49929 18.6851 6.81536 19.2785 7.11283 19.8904C7.26157 20.2242 7.4289 20.5394 7.55904 20.8547L7.63341 21.0401C7.6706 21.1143 7.70778 21.207 7.72637 21.2812L4.37979 25.7131L2.92961 25.7316C2.42762 25.7316 2.03718 26.1396 2.03718 26.6402L2 34.7808C2 35.5596 2.35325 36.2828 2.96679 36.7464C4.84459 38.1742 7.03846 39.4537 9.49262 40.5849C9.71573 40.6776 9.92024 40.9187 9.97602 41.1597L11.2775 45.6658C11.389 46.0552 11.7423 46.3333 12.1513 46.3333H17.3757C17.7847 46.3333 18.1566 46.0552 18.2681 45.6472L18.7329 43.8671L27.0994 43.9041L27.5456 45.6472C27.6571 46.0552 28.0104 46.3333 28.438 46.3333H33.681C34.09 46.3333 34.4433 46.0552 34.5548 45.6658L36.4698 39.0643C36.507 38.9531 36.5628 38.8232 36.6557 38.7305C39.7048 35.6894 41.1178 31.0536 40.337 26.6588C40.2626 26.2694 40.1696 25.88 40.0581 25.4905Z" fill="black"/>
<path d="M12.6161 26.2323C12.6161 27.0296 11.9468 27.6972 11.1473 27.6972C10.3479 27.6972 9.67855 27.0296 9.67855 26.2323C9.67855 25.4349 10.3479 24.7673 11.1473 24.7673C11.9468 24.7673 12.6161 25.4535 12.6161 26.2323Z" fill="black"/>
</svg>
