<svg width="25" height="25" viewBox="0 0 25 25" fill="none" xmlns="http://www.w3.org/2000/svg">
<path d="M18.9442 10.3734C18.5493 9.77818 17.6909 8.98709 17.0382 8.42448C16.906 8.31163 16.7673 8.31384 16.6803 8.36805C16.4988 8.46376 16.5493 8.63138 16.5493 8.63138L16.5387 8.6253C16.8901 9.24046 17.1169 9.95078 17.1421 10.8757C17.148 11.3786 17.1145 11.7305 17.1134 11.7371C17.0998 11.814 17.0846 11.8815 17.0699 11.9418C17.0252 12.1465 16.7291 12.75 16.309 12.584C15.8889 12.4186 15.8636 11.7847 15.8636 11.7847C15.8636 11.7847 15.8601 11.7863 15.8578 11.7863C15.5352 8.2646 13.8108 6.17846 12.4882 5.08421C12.487 5.08311 12.4853 5.08145 12.4841 5.08034C12.4835 5.07979 12.4817 5.07868 12.48 5.07702C11.9494 4.63999 11.4882 4.36172 11.2079 4.2107C11.1768 4.19576 11.1445 4.18082 11.1033 4.15593C11.0364 4.11499 10.9841 4.09618 10.9271 4.07129C10.9283 4.07184 10.9283 4.07295 10.9283 4.07295C10.8907 4.05469 10.8519 4.04031 10.8131 4.02316C10.5622 3.95124 10.4382 4.05801 10.3765 4.18968C10.3742 4.20074 10.3243 4.46517 10.5187 4.99957C10.5193 5.00012 10.5187 5.00013 10.5193 5.00068C11.0546 6.3671 11.7068 8.78517 11.0228 11.377C10.8942 11.809 10.477 12.126 10.306 12.126C9.70087 12.1841 9.4212 11.7659 9.31074 11.5247C9.29135 11.4738 9.26726 11.4262 9.25022 11.3709C9.25022 11.3692 9.24787 11.3615 9.24787 11.3615C8.88535 10.1439 9.32954 8.32214 9.64035 7.3059C9.84893 6.55409 8.8689 7.30645 8.8689 7.30645L8.86538 7.30866C8.67266 7.46135 8.46526 7.6345 8.24669 7.82591L8.24552 7.81872C7.96937 8.0566 7.6045 8.38686 7.22906 8.7647C7.02577 8.96939 4.31835 11.7747 5.16266 15.6057C5.97406 18.702 8.93118 21 12.47 21C16.3078 21 19.4682 18.2992 19.9453 14.8079C19.9635 14.6669 19.98 14.5269 19.9876 14.3875C19.9912 14.3433 19.9923 14.2979 19.9947 14.2514C20.0605 12.6455 19.5041 11.3034 18.9442 10.3734Z" fill="black"/>
</svg>
