<svg width="50" height="50" viewBox="0 0 50 50" fill="none" xmlns="http://www.w3.org/2000/svg">
<path d="M47.7339 11.9542C47.3642 11.566 46.7726 11.5475 46.3844 11.9172L39.8405 18.1285L37.0306 15.2077C36.6609 14.8195 36.0693 14.8195 35.6811 15.1892C35.2929 15.5589 35.2929 16.1505 35.6627 16.5387L39.138 20.1434C39.3228 20.3468 39.5816 20.4392 39.822 20.4392C40.0623 20.4392 40.3026 20.3468 40.469 20.1804L47.6969 13.3221C48.0851 12.9339 48.1036 12.3239 47.7339 11.9542Z" fill="black"/>
<path d="M17.1399 19.6073C17.7499 22.7684 20.5413 25.0606 23.7578 25.0606C26.9743 25.0606 29.7657 22.7684 30.3757 19.6073L31.263 15.0044C31.5403 12.9894 30.9303 10.956 29.5808 9.42164C28.2498 7.88732 26.3088 7 24.2754 7H23.2217C21.1883 7 19.2473 7.88732 17.9163 9.42164C16.5853 10.956 15.9568 12.9894 16.2526 15.0598L17.1399 19.6073ZM19.3582 10.6602C20.3379 9.53256 21.7428 8.90404 23.2402 8.90404H24.2939C25.7727 8.90404 27.1962 9.55104 28.1759 10.6602C29.1557 11.7693 29.5993 13.2667 29.4145 14.6901L28.5086 19.2376C28.065 21.5114 26.0685 23.1566 23.7578 23.1566C21.4471 23.1566 19.4506 21.5114 19.0254 19.2376L18.1566 14.7456C17.9348 13.2667 18.3969 11.7878 19.3582 10.6602Z" fill="black"/>
<path d="M37.8994 31.6046C37.7146 30.6988 37.0491 29.9409 36.1803 29.6451L30.006 27.4453C29.6733 27.3344 29.3035 27.4083 29.0447 27.6486L23.7763 32.5659L18.5078 27.6486C18.249 27.4083 17.8793 27.3344 17.5466 27.4453L11.3538 29.6451C10.485 29.9594 9.8195 30.6988 9.63464 31.6046L7.71211 40.6442C7.6012 41.1433 7.7306 41.6609 8.04486 42.0491C8.35912 42.4373 8.83975 42.6776 9.35735 42.6776H38.1582C38.6758 42.6776 39.138 42.4558 39.4707 42.0491C39.785 41.6424 39.9144 41.1433 39.8035 40.6442L37.8994 31.6046ZM9.63464 40.7736L11.5017 32.0113C11.5572 31.7525 11.742 31.5307 12.0008 31.4567L17.6205 29.4603L23.1108 34.5993C23.4805 34.9505 24.0536 34.9505 24.4048 34.5993L29.8951 29.4603L35.5148 31.4567C35.7551 31.5492 35.9584 31.7525 36.0139 32.0113L37.881 40.7736H9.63464Z" fill="black"/>
<path d="M10.6514 20.8274C10.8917 20.8274 11.132 20.735 11.3168 20.5501C11.6866 20.1804 11.6866 19.5703 11.3168 19.2006L8.15577 16.0396L11.3353 12.86C11.705 12.4903 11.705 11.8803 11.3353 11.5105C10.9656 11.1408 10.3556 11.1408 9.98587 11.5105L6.80631 14.6901L3.62675 11.5105C3.25703 11.1408 2.647 11.1408 2.27729 11.5105C1.90757 11.8803 1.90757 12.4903 2.27729 12.86L5.45685 16.0396L2.27729 19.2006C1.90757 19.5703 1.90757 20.1804 2.27729 20.5501C2.46215 20.735 2.70246 20.8274 2.94278 20.8274C3.18309 20.8274 3.42341 20.735 3.60827 20.5501L6.78782 17.3705L9.96738 20.5501C10.1707 20.735 10.411 20.8274 10.6514 20.8274Z" fill="black"/>
</svg>
