<!-- Generated by IcoMoon.io -->
<svg version="1.1" xmlns="http://www.w3.org/2000/svg" width="1024" height="1024" viewBox="0 0 1024 1024">
<title></title>
<g id="icomoon-ignore">
</g>
<path d="M360.866 429.132c37.702 0 68.267-30.564 68.267-68.267v-132.177c0-37.702 30.564-68.267 68.266-68.267h29.202c37.703 0 68.267 30.564 68.267 68.267v132.177c0 37.703 30.564 68.267 68.267 68.267h132.179c37.704 0 68.267 30.564 68.267 68.267v29.202c0 37.703-30.563 68.267-68.267 68.267h-132.179c-37.702 0-68.267 30.564-68.267 68.267v132.179c0 37.704-30.564 68.267-68.266 68.267h-29.202c-37.703 0-68.267-30.563-68.267-68.267v-132.179c0-37.702-30.564-68.267-68.267-68.267h-132.177c-37.702 0-68.267-30.564-68.267-68.267v-29.202c0-37.702 30.564-68.267 68.267-68.267h132.178z"></path>
</svg>
