<svg width="20" height="20" viewBox="0 0 20 20" fill="none" xmlns="http://www.w3.org/2000/svg">
<path d="M16.7375 15.5125L14.0206 12.7956C14.7889 11.771 15.25 10.504 15.25 9.125C15.25 5.74225 12.5077 3 9.125 3C5.74225 3 3 5.74225 3 9.125C3 12.5077 5.74225 15.25 9.125 15.25C10.504 15.25 11.771 14.7889 12.7948 14.0206L15.5125 16.7375C15.6735 16.8985 15.845 17 16.125 17C16.6089 17 17 16.6089 17 16.125C17 15.9334 16.9528 15.7277 16.7375 15.5125ZM4.75 9.125C4.75 6.70825 6.70825 4.75 9.125 4.75C11.5417 4.75 13.5 6.70825 13.5 9.125C13.5 11.5417 11.5417 13.5 9.125 13.5C6.70825 13.5 4.75 11.5417 4.75 9.125Z" fill="black"/>
</svg>
