<svg width="50" height="50" viewBox="0 0 50 50" fill="none" xmlns="http://www.w3.org/2000/svg">
<path d="M46.6358 20.7974C46.5629 20.3791 46.1987 20.0518 45.7798 20.0336C45.7616 20.0336 45.6888 20.0336 45.6706 20.0336H44.8329C44.1226 20.0336 43.3942 20.0336 42.6657 20.0336C42.2104 18.1425 41.4638 16.3605 40.444 14.6876L40.6989 14.4331C41.3363 13.7966 41.9737 13.142 42.6293 12.5238C42.9571 12.2147 42.9935 11.7055 42.7386 11.3419C41.2999 9.34165 39.5516 7.6142 37.5484 6.1777C37.1841 5.92312 36.6742 5.95949 36.3646 6.2868C36.0186 6.65047 35.6544 6.99596 35.3084 7.34145C34.9259 7.70512 34.5617 8.08698 34.1975 8.46884C32.5221 7.45055 30.7191 6.7232 28.8252 6.26861C28.8252 6.01404 28.8252 5.74129 28.8252 5.48672V5.05031C28.8252 5.01394 28.8252 4.97757 28.8252 4.94121V4.41388C28.8252 4.03202 28.8252 3.63198 28.8252 3.19558C28.8252 2.74098 28.4974 2.35913 28.0603 2.28639C25.6928 1.90454 23.2343 1.90454 20.8669 2.28639C20.4116 2.35913 20.0838 2.77735 20.102 3.25013C20.1202 3.63198 20.1202 4.03202 20.102 4.41388V4.94121C20.102 4.97757 20.102 5.01394 20.102 5.05031V5.48672C20.102 5.75947 20.102 6.01404 20.102 6.26861C18.208 6.7232 16.4051 7.45055 14.7297 8.46884C14.3654 8.08698 13.983 7.72331 13.6188 7.34145C13.2728 6.99596 12.9085 6.63229 12.5625 6.2868C12.2529 5.95949 11.743 5.92312 11.3788 6.1777C9.37556 7.6142 7.62728 9.35983 6.18859 11.3419C5.91542 11.7055 5.97005 12.2147 6.29785 12.5238C6.95346 13.1602 7.59085 13.7966 8.22825 14.4331L8.4832 14.6876C7.46338 16.3424 6.71671 18.1425 6.26143 20.0336C5.53298 20.0155 4.80453 20.0155 4.09429 20.0336H3.25658C3.23837 20.0336 3.16552 20.0336 3.14731 20.0336C2.71024 20.0518 2.34601 20.3791 2.29138 20.7974C2.09106 21.9975 2 23.234 2 24.4705C2 25.6888 2.09106 26.9252 2.29138 28.1254C2.36423 28.5436 2.69203 28.8527 3.11089 28.8891C3.18373 28.8891 3.27479 28.9073 3.34763 28.9073C3.96681 28.9073 4.56779 28.9073 5.18697 28.9073C5.55119 28.9073 5.91542 28.9073 6.27964 28.9073C6.73492 30.8165 7.4998 32.6349 8.53784 34.3078C8.11898 34.7079 7.70012 35.1261 7.29947 35.5443L6.60745 36.2353C6.49818 36.3444 6.40712 36.4353 6.33428 36.508C6.0429 36.8353 6.00647 37.3081 6.26143 37.6536C7.70012 39.6356 9.43019 41.3449 11.4152 42.7814C11.7612 43.036 12.2529 42.9996 12.5625 42.7087C12.5989 42.6723 12.6354 42.6359 12.6536 42.6177C13.0724 42.1813 13.4913 41.7631 13.9102 41.3449C14.1833 41.0721 14.4747 40.7812 14.7479 40.5084C16.4233 41.5267 18.2262 42.2723 20.1384 42.7268C20.1384 43.236 20.1384 43.7451 20.1384 44.2725C20.1384 44.7634 20.1384 45.2362 20.1384 45.7453C20.1384 45.7635 20.1384 45.8544 20.1384 45.8726C20.1566 46.2908 20.4844 46.6545 20.9033 46.7091C22.0688 46.8909 23.2889 47 24.4909 47C25.6928 47 26.8948 46.9091 28.0785 46.7091C28.4974 46.6363 28.8252 46.2908 28.8434 45.8726C28.8434 45.8544 28.8434 45.7453 28.8434 45.7271C28.8434 45.2362 28.8434 44.7634 28.8434 44.2725C28.8434 43.7633 28.8434 43.2542 28.8434 42.7268C30.7556 42.2723 32.5585 41.5267 34.2339 40.5084C34.5071 40.7994 34.7985 41.0721 35.0716 41.3449C35.4905 41.7631 35.9093 42.1813 36.3282 42.5996C36.3646 42.6359 36.4011 42.6723 36.4375 42.7087C36.7653 42.9996 37.2388 43.036 37.5848 42.7814C39.5698 41.3631 41.3181 39.6356 42.7386 37.6536C42.9935 37.3081 42.9571 36.8172 42.6657 36.508C42.5929 36.4353 42.5018 36.3262 42.3926 36.2353L41.7005 35.5443C41.2999 35.1443 40.881 34.726 40.4622 34.3078C41.5002 32.6349 42.2469 30.8165 42.7204 28.9073C43.0846 28.9073 43.4488 28.9073 43.813 28.9073C44.4322 28.9073 45.0332 28.9073 45.6342 28.9073C45.7252 28.9073 45.8163 28.9073 45.8891 28.9073C46.308 28.8709 46.6358 28.5618 46.7086 28.1436C46.9089 26.9434 47 25.7251 47 24.4886C46.9272 23.234 46.8361 22.0157 46.6358 20.7974ZM44.9421 27.0525C44.5415 27.0525 44.1408 27.0525 43.7402 27.0525C43.1756 27.0525 42.6111 27.0525 42.0283 27.0525C41.9555 27.0525 41.9008 27.0525 41.8462 27.0525C41.4274 27.0889 41.0996 27.3798 41.0085 27.7799C40.5714 29.9619 39.7155 32.0167 38.4589 33.8714C38.2404 34.1805 38.2586 34.5987 38.4589 34.9079C38.5318 35.017 38.6228 35.1261 38.7503 35.2352C39.2784 35.7443 39.8066 36.2716 40.3347 36.799L40.7171 37.1808C39.6609 38.5264 38.4407 39.7447 37.0749 40.7994C36.8199 40.5448 36.5467 40.272 36.2918 40.0175C35.8911 39.6174 35.5087 39.2356 35.1081 38.8355C34.9988 38.7264 34.8895 38.6173 34.762 38.5446C34.4524 38.3446 34.07 38.3446 33.7604 38.5446C31.9029 39.7811 29.8632 40.6175 27.6961 41.0358C27.3501 41.1085 27.0769 41.3631 26.9858 41.7086C26.9494 41.8722 26.9312 42.0541 26.9312 42.2541C26.9494 42.9087 26.9494 43.5451 26.9494 44.1997C26.9494 44.4543 26.9494 44.6907 26.9494 44.9453C25.2922 45.1453 23.5803 45.1453 21.9049 44.9453C21.9049 44.6907 21.9049 44.4543 21.9049 44.1997C21.9049 43.5451 21.9049 42.9087 21.9231 42.2541C21.9231 42.0541 21.9049 41.8722 21.8685 41.7086C21.7774 41.3631 21.5042 41.0903 21.1582 41.0358C18.9729 40.6175 16.9332 39.7811 15.0939 38.5446C14.7843 38.3446 14.4019 38.3446 14.0923 38.5446C13.9648 38.6173 13.8555 38.7264 13.7463 38.8355C13.3638 39.2356 12.9632 39.6356 12.5625 40.0175C12.3076 40.272 12.0344 40.5266 11.7794 40.7994C10.4136 39.7447 9.19344 38.5264 8.13719 37.1808L8.51963 36.799C9.04775 36.2716 9.55767 35.7443 10.104 35.2352C10.2133 35.1261 10.3043 35.017 10.3772 34.9079C10.5957 34.5987 10.5957 34.1987 10.3772 33.8714C9.1206 32.0167 8.26467 29.9619 7.8276 27.7799C7.75476 27.3798 7.40874 27.0707 6.98988 27.0525C6.93525 27.0525 6.8624 27.0343 6.78956 27.0525C6.22501 27.0525 5.66046 27.0525 5.09591 27.0525C4.69526 27.0525 4.31283 27.0525 3.89397 27.0525C3.7847 26.1979 3.73007 25.3251 3.73007 24.4705C3.73007 23.5976 3.7847 22.7248 3.89397 21.8702H4.02145C4.84096 21.8702 5.69688 21.8702 6.5346 21.8884C6.77135 21.8884 6.97167 21.8702 7.15378 21.8338C7.4998 21.7429 7.75476 21.4701 7.80939 21.1247C8.24646 18.979 9.08418 16.9606 10.3043 15.1241C10.5047 14.8149 10.5047 14.4331 10.3225 14.124C10.1951 13.9239 10.0312 13.7603 9.81263 13.5421L9.4484 13.1784C8.99312 12.7238 8.53784 12.2692 8.08256 11.8146C9.15702 10.4145 10.3954 9.19618 11.7794 8.12335C11.9433 8.287 12.1255 8.46884 12.2894 8.63249C12.7446 9.08708 13.1999 9.54167 13.637 9.99626C13.7645 10.1235 13.9648 10.3054 14.238 10.4327C14.5293 10.56 14.8571 10.5236 15.1121 10.3599C16.9514 9.14163 18.9729 8.30518 21.14 7.88696C21.486 7.81422 21.7592 7.55965 21.8503 7.23235C21.8867 7.06869 21.9049 6.90504 21.9049 6.70502C21.8867 6.2868 21.8867 5.88676 21.9049 5.46853V4.90484C21.9049 4.86847 21.9049 4.8321 21.9049 4.79574V4.3957C21.9049 4.25023 21.9049 4.10476 21.9049 3.95929C23.5803 3.75927 25.274 3.75927 26.9494 3.95929C26.9494 4.10476 26.9494 4.25023 26.9494 4.3957V4.79574C26.9494 4.8321 26.9494 4.86847 26.9494 4.90484V5.46853C26.9494 5.88676 26.9494 6.2868 26.9494 6.70502C26.9494 6.90504 26.9676 7.06869 27.004 7.23235C27.0951 7.55965 27.3683 7.83241 27.7143 7.88696C29.8814 8.30518 31.9029 9.14163 33.7422 10.3599C33.9972 10.5236 34.325 10.56 34.6163 10.4327C34.8895 10.3054 35.0898 10.1235 35.2173 9.99626C35.6544 9.54167 36.1097 9.08708 36.565 8.63249C36.7289 8.46884 36.911 8.287 37.0749 8.12335C38.4589 9.19618 39.6973 10.4145 40.7535 11.7783C40.2983 12.2329 39.843 12.6874 39.3877 13.142L39.0235 13.5057C38.8049 13.7239 38.641 13.8876 38.5136 14.0876C38.3132 14.3967 38.3314 14.7786 38.5318 15.0877C39.7519 16.9242 40.5896 18.9426 41.0267 21.0883C41.0996 21.4338 41.3545 21.7065 41.6823 21.7975C41.8644 21.852 42.0648 21.8702 42.3015 21.852C43.1392 21.8156 43.9951 21.8338 44.8147 21.8338H44.9421C45.0514 22.6885 45.106 23.5795 45.106 24.4341C45.106 25.3433 45.0514 26.1979 44.9421 27.0525Z" fill="black"/>
<path d="M34.0154 17.5791C33.2687 16.5244 32.3399 15.6153 31.2837 14.8697C29.8086 13.8151 28.0785 13.1059 26.2938 12.815C25.0554 12.615 23.7624 12.615 22.5241 12.815C20.7394 13.1059 19.0093 13.8151 17.5342 14.8697C16.4779 15.6153 15.5674 16.5426 14.8025 17.5791C13.7462 19.052 13.036 20.7612 12.7264 22.5432C12.6171 23.1797 12.5625 23.8161 12.5625 24.4707C12.5625 25.1071 12.6171 25.7617 12.7082 26.38C12.9996 28.1802 13.728 29.9076 14.8025 31.3805C15.5491 32.417 16.4597 33.3261 17.516 34.0717C18.9911 35.1263 20.7211 35.8355 22.5058 36.1264C23.125 36.2174 23.7624 36.2719 24.3816 36.2719C25.0008 36.2719 25.6382 36.2174 26.2574 36.1264C28.0421 35.8355 29.7721 35.1263 31.2472 34.0717C32.2853 33.3261 33.1958 32.417 33.9607 31.3805C35.0352 29.9076 35.7636 28.1802 36.055 26.38C36.1643 25.7436 36.2007 25.1071 36.2007 24.4707C36.2007 23.8161 36.1461 23.1797 36.0368 22.5432C35.8001 20.7612 35.0716 19.052 34.0154 17.5791ZM34.2885 26.0891C34.0336 27.5983 33.4326 29.0712 32.522 30.3077C31.8846 31.1805 31.1198 31.9442 30.2274 32.5806C28.989 33.4716 27.5321 34.0717 26.0206 34.3081C24.9644 34.4717 23.8899 34.4717 22.8336 34.3081C21.3221 34.0717 19.8652 33.4716 18.6086 32.5806C17.7345 31.9442 16.9514 31.1805 16.314 30.3077C15.4035 29.053 14.8025 27.5983 14.5475 26.0891C14.4565 25.5617 14.42 25.0162 14.42 24.4707C14.42 23.9252 14.4565 23.3797 14.5475 22.8342C14.8025 21.3249 15.4035 19.8702 16.2958 18.6338C16.9332 17.7428 17.7163 16.979 18.6086 16.3426C19.847 15.4516 21.3039 14.8516 22.8154 14.6152C23.3436 14.5242 23.8717 14.4879 24.418 14.4879C24.9644 14.4879 25.4925 14.5242 26.0206 14.6152C27.5321 14.8516 28.989 15.4516 30.2274 16.3426C31.1198 16.979 31.9028 17.7609 32.5402 18.6338C33.4326 19.8702 34.0336 21.3249 34.2885 22.8342C34.3796 23.3615 34.416 23.907 34.416 24.4707C34.416 25.0162 34.3614 25.5617 34.2885 26.0891Z" fill="black"/>
<path d="M29.0619 20.4338L22.5969 26.5617L19.8106 23.6705C19.4645 23.3068 18.8818 23.2886 18.5176 23.6523C18.1533 23.9978 18.1351 24.5796 18.4993 24.9433L21.9231 28.4891C22.1052 28.671 22.3419 28.7619 22.5787 28.7619C22.7972 28.7619 23.0339 28.671 23.2161 28.5073L30.3549 21.743C30.7191 21.3975 30.7373 20.8156 30.3913 20.452C30.0089 20.0883 29.4443 20.0701 29.0619 20.4338Z" fill="black"/>
</svg>
