<svg width="25" height="25" viewBox="0 0 25 25" fill="none" xmlns="http://www.w3.org/2000/svg">
<path fill-rule="evenodd" clip-rule="evenodd" d="M6 5C4.89543 5 4 5.89543 4 7V18C4 19.1046 4.89543 20 6 20H11.5V5H6ZM6.14285 8.21429C6.14285 7.62256 6.62254 7.14286 7.21428 7.14286H8.28571C8.87744 7.14286 9.35713 7.62256 9.35713 8.21429C9.35713 8.80603 8.87744 9.28572 8.28571 9.28572H7.21428C6.62254 9.28572 6.14285 8.80603 6.14285 8.21429ZM6.14285 12.5C6.14285 11.9083 6.62254 11.4286 7.21428 11.4286H8.28571C8.87744 11.4286 9.35713 11.9083 9.35713 12.5C9.35713 13.0917 8.87744 13.5714 8.28571 13.5714H7.21428C6.62254 13.5714 6.14285 13.0917 6.14285 12.5ZM7.21428 15.7143C6.62254 15.7143 6.14285 16.194 6.14285 16.7857C6.14285 17.3775 6.62254 17.8571 7.21428 17.8571H8.28571C8.87744 17.8571 9.35713 17.3775 9.35713 16.7857C9.35713 16.194 8.87744 15.7143 8.28571 15.7143H7.21428Z" fill="black"/>
<path fill-rule="evenodd" clip-rule="evenodd" d="M19 5C20.1046 5 21 5.89543 21 7V18C21 19.1046 20.1046 20 19 20H13.5V5H19ZM15.6429 8.21429C15.6429 7.62255 16.1226 7.14286 16.7143 7.14286H17.7857C18.3774 7.14286 18.8571 7.62255 18.8571 8.21429C18.8571 8.80602 18.3774 9.28571 17.7857 9.28571H16.7143C16.1226 9.28571 15.6429 8.80602 15.6429 8.21429ZM15.6429 12.5C15.6429 11.9083 16.1226 11.4286 16.7143 11.4286H17.7857C18.3774 11.4286 18.8571 11.9083 18.8571 12.5C18.8571 13.0917 18.3774 13.5714 17.7857 13.5714H16.7143C16.1226 13.5714 15.6429 13.0917 15.6429 12.5ZM16.7143 15.7143C16.1226 15.7143 15.6429 16.194 15.6429 16.7857C15.6429 17.3774 16.1226 17.8571 16.7143 17.8571H17.7857C18.3774 17.8571 18.8571 17.3774 18.8571 16.7857C18.8571 16.194 18.3774 15.7143 17.7857 15.7143H16.7143Z" fill="black"/>
</svg>
