<svg width="20" height="20" viewBox="0 0 20 20" fill="none" xmlns="http://www.w3.org/2000/svg">
<path d="M6.93038 4C6.93038 3.44772 7.39368 3 7.96519 3C8.5367 3 9 3.44772 9 4V16C9 16.5523 8.5367 17 7.96519 17C7.39368 17 6.93038 16.5523 6.93038 16V4Z" fill="black"/>
<path d="M9 4C9 3.44772 8.5367 3 7.96519 3H4.03682C3.14776 3 2.6726 4.01192 3.25805 4.6585L7.18642 8.99706C7.81563 9.69196 9 9.26192 9 8.33855V4Z" fill="black"/>
<path d="M11 4C11 3.44772 11.4633 3 12.0348 3C12.6063 3 13.0696 3.44772 13.0696 4V16C13.0696 16.5523 12.6063 17 12.0348 17C11.4633 17 11 16.5523 11 16V4Z" fill="black"/>
<path d="M11 16C11 16.5523 11.4633 17 12.0348 17H15.9632C16.8522 17 17.3274 15.9881 16.742 15.3415L12.8136 11.0029C12.1844 10.308 11 10.7381 11 11.6614V16Z" fill="black"/>
</svg>
