<svg width="25" height="25" viewBox="0 0 25 25" fill="none" xmlns="http://www.w3.org/2000/svg">
<path d="M11.9843 17.7767C12.3016 17.5857 12.6984 17.5857 13.0157 17.7767L16.3422 19.7789C17.0999 20.2349 18.0331 19.5554 17.8316 18.6943L16.9508 14.929C16.8661 14.5669 16.9893 14.1877 17.2708 13.9445L20.2059 11.4089C20.8754 10.8305 20.5193 9.73162 19.6378 9.65582L15.7685 9.32309C15.3999 9.29139 15.0789 9.0588 14.934 8.71841L13.4201 5.16167C13.0749 4.35053 11.9251 4.35053 11.5799 5.16167L10.066 8.71841C9.92107 9.0588 9.6001 9.29139 9.23152 9.32309L5.35916 9.65608C4.47815 9.73184 4.1218 10.8298 4.79042 11.4085L7.72125 13.9451C8.00185 14.188 8.12489 14.5663 8.04085 14.9277L7.16424 18.698C6.96413 19.5586 7.89688 20.2369 8.65394 19.7812L11.9843 17.7767Z" fill="black"/>
</svg>
