<svg width="25" height="25" viewBox="0 0 25 25" fill="none" xmlns="http://www.w3.org/2000/svg">
<path d="M8.45 9.5C8.17152 9.5 7.90445 9.38938 7.70754 9.19246C7.51062 8.99555 7.4 8.72848 7.4 8.45C7.4 8.17152 7.51062 7.90445 7.70754 7.70754C7.90445 7.51062 8.17152 7.4 8.45 7.4C8.72848 7.4 8.99555 7.51062 9.19246 7.70754C9.38938 7.90445 9.5 8.17152 9.5 8.45C9.5 8.72848 9.38938 8.99555 9.19246 9.19246C8.99555 9.38938 8.72848 9.5 8.45 9.5ZM19.587 12.706L13.287 6.406C13.035 6.154 12.685 6 12.3 6H7.4C6.623 6 6 6.623 6 7.4V12.3C6 12.685 6.154 13.035 6.413 13.287L12.706 19.587C12.965 19.839 13.315 20 13.7 20C14.085 20 14.435 19.839 14.687 19.587L19.587 14.687C19.846 14.435 20 14.085 20 13.7C20 13.308 19.839 12.958 19.587 12.706Z" fill="black"/>
</svg>
